<svg width="30" height="30" viewBox="0 0 30 30" fill="none" xmlns="http://www.w3.org/2000/svg">
<path d="M19.6875 17.8125C19.6875 18.0612 19.5887 18.2996 19.4129 18.4754C19.2371 18.6512 18.9986 18.75 18.75 18.75H11.25C11.0014 18.75 10.7629 18.6512 10.5871 18.4754C10.4113 18.2996 10.3125 18.0612 10.3125 17.8125C10.3125 17.5639 10.4113 17.3254 10.5871 17.1496C10.7629 16.9738 11.0014 16.875 11.25 16.875H18.75C18.9986 16.875 19.2371 16.9738 19.4129 17.1496C19.5887 17.3254 19.6875 17.5639 19.6875 17.8125ZM18.75 13.125H11.25C11.0014 13.125 10.7629 13.2238 10.5871 13.3996C10.4113 13.5754 10.3125 13.8139 10.3125 14.0625C10.3125 14.3112 10.4113 14.5496 10.5871 14.7254C10.7629 14.9012 11.0014 15 11.25 15H18.75C18.9986 15 19.2371 14.9012 19.4129 14.7254C19.5887 14.5496 19.6875 14.3112 19.6875 14.0625C19.6875 13.8139 19.5887 13.5754 19.4129 13.3996C19.2371 13.2238 18.9986 13.125 18.75 13.125ZM25.3125 5.62501V25.3125C25.3125 25.8098 25.115 26.2867 24.7633 26.6383C24.4117 26.99 23.9348 27.1875 23.4375 27.1875H6.5625C6.06522 27.1875 5.58831 26.99 5.23667 26.6383C4.88504 26.2867 4.6875 25.8098 4.6875 25.3125V5.62501C4.6875 5.12773 4.88504 4.65082 5.23667 4.29919C5.58831 3.94756 6.06522 3.75001 6.5625 3.75001H10.8117C11.3385 3.16024 11.9839 2.68836 12.7056 2.36528C13.4274 2.04219 14.2092 1.87518 15 1.87518C15.7908 1.87518 16.5726 2.04219 17.2944 2.36528C18.0161 2.68836 18.6615 3.16024 19.1883 3.75001H23.4375C23.9348 3.75001 24.4117 3.94756 24.7633 4.29919C25.115 4.65082 25.3125 5.12773 25.3125 5.62501ZM11.25 7.50001H18.75C18.75 6.50545 18.3549 5.55162 17.6516 4.84836C16.9484 4.1451 15.9946 3.75001 15 3.75001C14.0054 3.75001 13.0516 4.1451 12.3483 4.84836C11.6451 5.55162 11.25 6.50545 11.25 7.50001ZM23.4375 5.62501H20.3027C20.516 6.22714 20.625 6.86124 20.625 7.50001V8.43751C20.625 8.68615 20.5262 8.92461 20.3504 9.10043C20.1746 9.27624 19.9361 9.37501 19.6875 9.37501H10.3125C10.0639 9.37501 9.8254 9.27624 9.64959 9.10043C9.47377 8.92461 9.375 8.68615 9.375 8.43751V7.50001C9.37502 6.86124 9.48401 6.22714 9.69727 5.62501H6.5625V25.3125H23.4375V5.62501Z" fill="#F8511C"/>
</svg>
