<svg width="30" height="30" viewBox="0 0 30 30" fill="none" xmlns="http://www.w3.org/2000/svg">
<path d="M15 17.8125C14.7219 17.8125 14.45 17.73 14.2187 17.5755C13.9875 17.421 13.8072 17.2014 13.7008 16.9444C13.5944 16.6874 13.5665 16.4047 13.6208 16.1319C13.675 15.8591 13.809 15.6085 14.0056 15.4119C14.2023 15.2152 14.4529 15.0813 14.7257 15.027C14.9984 14.9728 15.2812 15.0006 15.5382 15.107C15.7951 15.2135 16.0147 15.3937 16.1693 15.625C16.3238 15.8562 16.4063 16.1281 16.4063 16.4062C16.4063 16.7792 16.2581 17.1369 15.9944 17.4006C15.7307 17.6643 15.373 17.8125 15 17.8125ZM27.1875 15C27.1875 17.4105 26.4727 19.7668 25.1335 21.771C23.7944 23.7752 21.8909 25.3373 19.664 26.2598C17.437 27.1822 14.9865 27.4236 12.6223 26.9533C10.2582 26.4831 8.08659 25.3223 6.38214 23.6179C4.67769 21.9134 3.51694 19.7418 3.04668 17.3777C2.57643 15.0135 2.81778 12.563 3.74022 10.336C4.66267 8.10907 6.22477 6.20564 8.22899 4.86646C10.2332 3.52728 12.5895 2.8125 15 2.8125C18.2313 2.81591 21.3292 4.10104 23.6141 6.3859C25.899 8.67077 27.1841 11.7687 27.1875 15ZM4.68751 15V15.0387C7.56695 12.5928 11.222 11.25 15 11.25C18.778 11.25 22.4331 12.5928 25.3125 15.0387V15C25.3125 12.265 24.226 9.64193 22.292 7.70796C20.3581 5.77399 17.7351 4.6875 15 4.6875C12.265 4.6875 9.64194 5.77399 7.70797 7.70796C5.774 9.64193 4.68751 12.265 4.68751 15ZM12.5977 25.0289L10.5996 19.6875H5.81602C6.49555 21.0133 7.45321 22.1769 8.6236 23.0987C9.79398 24.0205 11.1495 24.6789 12.5977 25.0289ZM15 25.3125C15.0973 25.3125 15.1945 25.3125 15.2918 25.3125L17.6438 19.0348C17.7787 18.6775 18.0191 18.3697 18.3331 18.1523C18.647 17.9348 19.0197 17.818 19.4016 17.8172H24.9234C24.968 17.6637 25.0078 17.5078 25.0406 17.3484C23.7314 16.0126 22.1687 14.9514 20.4443 14.227C18.7198 13.5025 16.8681 13.1293 14.9977 13.1293C13.1272 13.1293 11.2755 13.5025 9.55106 14.227C7.82659 14.9514 6.26397 16.0126 4.95469 17.3484C4.99102 17.5055 5.03086 17.6613 5.07188 17.8172H10.5996C10.9816 17.8182 11.3543 17.9353 11.6682 18.153C11.9821 18.3706 12.2225 18.6786 12.3574 19.0359L14.7012 25.3125C14.802 25.3125 14.9004 25.3125 15 25.3125ZM24.184 19.6875H19.4004L17.3977 25.0301C18.8468 24.6807 20.2033 24.0224 21.3746 23.1003C22.5459 22.1782 23.5042 21.0141 24.184 19.6875Z" fill="#F8511C"/>
</svg>
