<svg width="30" height="30" viewBox="0 0 30 30" fill="none" xmlns="http://www.w3.org/2000/svg">
<path d="M28.125 13.125H24.7629L19.6875 8.04962C19.514 7.87475 19.3075 7.73611 19.08 7.64176C18.8524 7.54741 18.6084 7.49922 18.3621 7.50001H5.18906C4.88109 7.50058 4.57799 7.577 4.30657 7.72253C4.03514 7.86805 3.80374 8.07819 3.63281 8.33438L0.157031 13.5422C0.0549045 13.6965 0.000305693 13.8774 0 14.0625L0 19.6875C0 20.1848 0.197544 20.6617 0.549175 21.0133C0.900806 21.365 1.37772 21.5625 1.875 21.5625H3.86719C4.07372 22.3691 4.54284 23.0841 5.2006 23.5947C5.85836 24.1052 6.66734 24.3824 7.5 24.3824C8.33266 24.3824 9.14164 24.1052 9.7994 23.5947C10.4572 23.0841 10.9263 22.3691 11.1328 21.5625H18.8672C19.0737 22.3691 19.5428 23.0841 20.2006 23.5947C20.8584 24.1052 21.6673 24.3824 22.5 24.3824C23.3327 24.3824 24.1416 24.1052 24.7994 23.5947C25.4572 23.0841 25.9263 22.3691 26.1328 21.5625H28.125C28.6223 21.5625 29.0992 21.365 29.4508 21.0133C29.8025 20.6617 30 20.1848 30 19.6875V15C30 14.5027 29.8025 14.0258 29.4508 13.6742C29.0992 13.3226 28.6223 13.125 28.125 13.125ZM5.18906 9.37501H18.3621L22.1121 13.125H2.69531L5.18906 9.37501ZM7.5 22.5C7.12916 22.5 6.76665 22.39 6.45831 22.184C6.14996 21.978 5.90964 21.6852 5.76773 21.3425C5.62581 20.9999 5.58868 20.6229 5.66103 20.2592C5.73337 19.8955 5.91195 19.5614 6.17417 19.2992C6.4364 19.037 6.77049 18.8584 7.13421 18.786C7.49792 18.7137 7.87492 18.7508 8.21753 18.8927C8.56014 19.0347 8.85298 19.275 9.05901 19.5833C9.26503 19.8917 9.375 20.2542 9.375 20.625C9.375 21.1223 9.17746 21.5992 8.82582 21.9508C8.47419 22.3025 7.99728 22.5 7.5 22.5ZM22.5 22.5C22.1292 22.5 21.7666 22.39 21.4583 22.184C21.15 21.978 20.9096 21.6852 20.7677 21.3425C20.6258 20.9999 20.5887 20.6229 20.661 20.2592C20.7334 19.8955 20.912 19.5614 21.1742 19.2992C21.4364 19.037 21.7705 18.8584 22.1342 18.786C22.4979 18.7137 22.8749 18.7508 23.2175 18.8927C23.5601 19.0347 23.853 19.275 24.059 19.5833C24.265 19.8917 24.375 20.2542 24.375 20.625C24.375 21.1223 24.1775 21.5992 23.8258 21.9508C23.4742 22.3025 22.9973 22.5 22.5 22.5ZM28.125 19.6875H26.1328C25.9263 18.8809 25.4572 18.1659 24.7994 17.6553C24.1416 17.1448 23.3327 16.8677 22.5 16.8677C21.6673 16.8677 20.8584 17.1448 20.2006 17.6553C19.5428 18.1659 19.0737 18.8809 18.8672 19.6875H11.1328C10.9263 18.8809 10.4572 18.1659 9.7994 17.6553C9.14164 17.1448 8.33266 16.8677 7.5 16.8677C6.66734 16.8677 5.85836 17.1448 5.2006 17.6553C4.54284 18.1659 4.07372 18.8809 3.86719 19.6875H1.875V15H28.125V19.6875Z" fill="#F8511C"/>
</svg>
