<svg width="30" height="30" viewBox="0 0 30 30" fill="none" xmlns="http://www.w3.org/2000/svg">
<path d="M28.125 21.5625H27.1875V6.78518L28.3207 6.54143C28.4437 6.51836 28.5608 6.47091 28.6652 6.40186C28.7695 6.33281 28.859 6.24357 28.9284 6.1394C28.9977 6.03522 29.0455 5.91823 29.0689 5.7953C29.0923 5.67237 29.0908 5.546 29.0646 5.42364C29.0384 5.30128 28.988 5.18541 28.9163 5.08285C28.8446 4.98029 28.7531 4.89312 28.6471 4.82648C28.5412 4.75985 28.423 4.71509 28.2995 4.69484C28.1761 4.6746 28.0498 4.67928 27.9281 4.70862L1.67812 10.3336C1.45198 10.3824 1.25187 10.5131 1.11627 10.7006C0.980682 10.888 0.919186 11.119 0.943617 11.349C0.968048 11.5791 1.07668 11.792 1.24862 11.9468C1.42055 12.1016 1.64365 12.1873 1.875 12.1875C1.94157 12.1874 2.00795 12.1803 2.07305 12.1664L2.8125 12.0082V21.5625H1.875C1.62636 21.5625 1.3879 21.6613 1.21209 21.8371C1.03627 22.0129 0.9375 22.2514 0.9375 22.5C0.9375 22.7487 1.03627 22.9871 1.21209 23.1629C1.3879 23.3388 1.62636 23.4375 1.875 23.4375H28.125C28.3736 23.4375 28.6121 23.3388 28.7879 23.1629C28.9637 22.9871 29.0625 22.7487 29.0625 22.5C29.0625 22.2514 28.9637 22.0129 28.7879 21.8371C28.6121 21.6613 28.3736 21.5625 28.125 21.5625ZM4.6875 11.6016L25.3125 7.18713V21.5625H22.5V15C22.5 14.7514 22.4012 14.5129 22.2254 14.3371C22.0496 14.1613 21.8111 14.0625 21.5625 14.0625H8.4375C8.18886 14.0625 7.9504 14.1613 7.77459 14.3371C7.59877 14.5129 7.5 14.7514 7.5 15V21.5625H4.6875V11.6016ZM20.625 17.8125H9.375V15.9375H20.625V17.8125ZM9.375 19.6875H20.625V21.5625H9.375V19.6875Z" fill="#F8511C"/>
</svg>
