<svg width="30" height="30" viewBox="0 0 30 30" fill="none" xmlns="http://www.w3.org/2000/svg">
<path d="M28.125 13.125H26.8594L23.6039 5.80078C23.4566 5.46941 23.2163 5.18787 22.9122 4.99027C22.6081 4.79268 22.2533 4.6875 21.8906 4.6875H8.10937C7.74673 4.6875 7.39186 4.79268 7.08777 4.99027C6.78368 5.18787 6.54342 5.46941 6.39609 5.80078L3.14062 13.125H1.875C1.62636 13.125 1.3879 13.2238 1.21209 13.3996C1.03627 13.5754 0.9375 13.8139 0.9375 14.0625C0.9375 14.3111 1.03627 14.5496 1.21209 14.7254C1.3879 14.9012 1.62636 15 1.875 15H2.8125V24.375C2.8125 24.8723 3.01004 25.3492 3.36167 25.7008C3.71331 26.0525 4.19022 26.25 4.6875 26.25H7.5C7.99728 26.25 8.47419 26.0525 8.82582 25.7008C9.17746 25.3492 9.375 24.8723 9.375 24.375V22.5H20.625V24.375C20.625 24.8723 20.8225 25.3492 21.1742 25.7008C21.5258 26.0525 22.0027 26.25 22.5 26.25H25.3125C25.8098 26.25 26.2867 26.0525 26.6383 25.7008C26.99 25.3492 27.1875 24.8723 27.1875 24.375V15H28.125C28.3736 15 28.6121 14.9012 28.7879 14.7254C28.9637 14.5496 29.0625 14.3111 29.0625 14.0625C29.0625 13.8139 28.9637 13.5754 28.7879 13.3996C28.6121 13.2238 28.3736 13.125 28.125 13.125ZM8.10937 6.5625H21.8906L24.8074 13.125H5.19258L8.10937 6.5625ZM7.5 24.375H4.6875V22.5H7.5V24.375ZM22.5 24.375V22.5H25.3125V24.375H22.5ZM25.3125 20.625H4.6875V15H25.3125V20.625ZM6.5625 17.8125C6.5625 17.5639 6.66127 17.3254 6.83709 17.1496C7.0129 16.9738 7.25136 16.875 7.5 16.875H9.375C9.62364 16.875 9.8621 16.9738 10.0379 17.1496C10.2137 17.3254 10.3125 17.5639 10.3125 17.8125C10.3125 18.0611 10.2137 18.2996 10.0379 18.4754C9.8621 18.6512 9.62364 18.75 9.375 18.75H7.5C7.25136 18.75 7.0129 18.6512 6.83709 18.4754C6.66127 18.2996 6.5625 18.0611 6.5625 17.8125ZM19.6875 17.8125C19.6875 17.5639 19.7863 17.3254 19.9621 17.1496C20.1379 16.9738 20.3764 16.875 20.625 16.875H22.5C22.7486 16.875 22.9871 16.9738 23.1629 17.1496C23.3387 17.3254 23.4375 17.5639 23.4375 17.8125C23.4375 18.0611 23.3387 18.2996 23.1629 18.4754C22.9871 18.6512 22.7486 18.75 22.5 18.75H20.625C20.3764 18.75 20.1379 18.6512 19.9621 18.4754C19.7863 18.2996 19.6875 18.0611 19.6875 17.8125Z" fill="#F8511C"/>
</svg>
