<svg width="30" height="30" viewBox="0 0 30 30" fill="none" xmlns="http://www.w3.org/2000/svg">
<path d="M18.859 15.046C18.859 12.1588 18.2595 9.52632 17.2254 7.53776M18.859 15.046H24.3815M18.859 15.046C18.859 17.9332 18.2595 20.5657 17.2254 22.5543M12.2039 26.2679C8.31157 26.2679 5.65446 21.2437 5.65446 15.046C5.65446 8.84835 8.31157 3.82416 12.2039 3.82416M12.2039 26.2679H17.3337C19.4128 26.2679 21.2817 24.8344 22.5717 22.5543M12.2039 26.2679C14.283 26.2679 16.0398 24.8344 17.2254 22.5543M12.2039 3.82416L17.3337 3.82416C19.4128 3.82416 21.2817 5.25764 22.5717 7.53776M12.2039 3.82416C14.283 3.82416 16.0398 5.25764 17.2254 7.53776M24.3815 15.046C24.3815 12.1588 23.6967 9.52632 22.5717 7.53776M24.3815 15.046C24.3815 17.9332 23.6967 20.5657 22.5717 22.5543M17.2254 7.53776H22.5717M17.2254 22.5543H22.5717M4.52148 24.4374L25.3526 4.56498" stroke="#F8511C" stroke-width="2" stroke-linecap="round"/>
</svg>
