<svg width="30" height="30" viewBox="0 0 30 30" fill="none" xmlns="http://www.w3.org/2000/svg">
<path d="M17.8125 11.25V6.56249C17.8125 6.31385 17.9113 6.0754 18.0871 5.89958C18.2629 5.72377 18.5014 5.62499 18.75 5.62499C18.9987 5.62499 19.2371 5.72377 19.4129 5.89958C19.5887 6.0754 19.6875 6.31385 19.6875 6.56249V8.9871L23.7117 4.96171C23.8876 4.7858 24.1262 4.68697 24.375 4.68697C24.6238 4.68697 24.8624 4.7858 25.0383 4.96171C25.2142 5.13762 25.313 5.37621 25.313 5.62499C25.313 5.87377 25.2142 6.11236 25.0383 6.28827L21.0141 10.3125H23.4375C23.6862 10.3125 23.9246 10.4113 24.1004 10.5871C24.2762 10.7629 24.375 11.0014 24.375 11.25C24.375 11.4986 24.2762 11.7371 24.1004 11.9129C23.9246 12.0887 23.6862 12.1875 23.4375 12.1875H18.75C18.5014 12.1875 18.2629 12.0887 18.0871 11.9129C17.9113 11.7371 17.8125 11.4986 17.8125 11.25ZM27.1735 20.5172C26.9645 22.1051 26.1847 23.5627 24.9796 24.6176C23.7745 25.6726 22.2266 26.2529 20.625 26.25C11.3203 26.25 3.75001 18.6797 3.75001 9.37499C3.74693 7.77344 4.32712 6.22557 5.38216 5.02064C6.4372 3.81571 7.8949 3.03618 9.48282 2.82773C9.88423 2.77861 10.2908 2.86059 10.6418 3.06143C10.9928 3.26228 11.2694 3.57122 11.4305 3.94218L13.9055 9.46757V9.48163C14.0286 9.76576 14.0795 10.076 14.0535 10.3845C14.0275 10.6931 13.9256 10.9904 13.7567 11.25C13.7356 11.2816 13.7133 11.3109 13.6899 11.3402L11.25 14.2324C12.1277 16.016 13.9934 17.8652 15.8004 18.7453L18.6527 16.3184C18.6808 16.2948 18.7101 16.2729 18.7406 16.2527C19 16.0798 19.2983 15.9742 19.6087 15.9455C19.9191 15.9169 20.2318 15.9661 20.5184 16.0887L20.5336 16.0957L26.0543 18.5695C26.4261 18.7298 26.7361 19.0061 26.9378 19.3572C27.1396 19.7083 27.2222 20.1152 27.1735 20.5172ZM25.3125 20.2828C25.3125 20.2828 25.3043 20.2828 25.2996 20.2828L19.7918 17.816L16.9383 20.243C16.9109 20.2668 16.8819 20.2887 16.8516 20.3086C16.5818 20.4886 16.2699 20.5955 15.9464 20.6189C15.6228 20.6424 15.2988 20.5815 15.0059 20.4422C12.811 19.3816 10.6231 17.2101 9.56134 15.0387C9.42075 14.7479 9.35766 14.4257 9.37819 14.1033C9.39872 13.781 9.50218 13.4694 9.67853 13.1988C9.6984 13.167 9.72074 13.1369 9.74532 13.1086L12.1875 10.2129L9.72657 4.70507C9.72611 4.7004 9.72611 4.69568 9.72657 4.69101C8.59015 4.83925 7.54674 5.39667 6.79175 6.25888C6.03675 7.12109 5.62194 8.22895 5.62501 9.37499C5.62935 13.3519 7.2111 17.1647 10.0232 19.9768C12.8353 22.7889 16.6481 24.3707 20.625 24.375C21.7704 24.3789 22.8779 23.9656 23.7406 23.2122C24.6033 22.4588 25.1621 21.4171 25.3125 20.2816V20.2828Z" fill="#F8511C"/>
</svg>
