<svg width="30" height="30" viewBox="0 0 30 30" fill="none" xmlns="http://www.w3.org/2000/svg">
<path d="M29.4538 13.125L21.5484 5.16565C19.437 3.05853 16.576 1.87512 13.5931 1.87512C10.6102 1.87512 7.74913 3.05853 5.6378 5.16565L5.62726 5.17619L4.01358 6.84377C3.84642 7.02341 3.75636 7.26143 3.76273 7.50673C3.76909 7.75203 3.87138 7.98506 4.04763 8.15579C4.22388 8.32652 4.46005 8.42134 4.70543 8.4199C4.95081 8.41845 5.18584 8.32086 5.36007 8.14807L6.96905 6.48635C7.61638 5.83915 8.3551 5.29035 9.16163 4.85744L14.6108 10.3125L3.36085 21.5625C3.18669 21.7366 3.04854 21.9434 2.95429 22.1709C2.86004 22.3984 2.81152 22.6422 2.81152 22.8885C2.81152 23.1348 2.86004 23.3786 2.95429 23.6061C3.04854 23.8336 3.18669 24.0404 3.36085 24.2145L5.78546 26.6391C5.95957 26.8132 6.16629 26.9514 6.39381 27.0456C6.62132 27.1399 6.86517 27.1884 7.11144 27.1884C7.3577 27.1884 7.60155 27.1399 7.82907 27.0456C8.05658 26.9514 8.2633 26.8132 8.43741 26.6391L19.6874 15.3891L21.3679 17.0696L23.4374 19.1367C23.6115 19.3109 23.8182 19.449 24.0458 19.5433C24.2733 19.6376 24.5171 19.6861 24.7634 19.6861C25.0097 19.6861 25.2535 19.6376 25.481 19.5433C25.7085 19.449 25.9153 19.3109 26.0894 19.1367L29.4515 15.7746C29.8028 15.4234 30.0004 14.9471 30.0008 14.4503C30.0012 13.9535 29.8045 13.4769 29.4538 13.125ZM7.11085 25.3125L4.68741 22.8879L12.6562 14.9192L15.0796 17.3438L7.11085 25.3125ZM19.0241 13.3969L16.4062 16.016L13.9816 13.5938L16.6007 10.9746C16.6879 10.8876 16.757 10.7842 16.8042 10.6704C16.8514 10.5565 16.8756 10.4346 16.8756 10.3114C16.8756 10.1881 16.8514 10.0662 16.8042 9.95234C16.757 9.83853 16.6879 9.73514 16.6007 9.64807L11.053 4.10158C12.6558 3.65017 14.35 3.63381 15.9612 4.05418C17.5724 4.47454 19.0426 5.31647 20.2206 6.49338L25.4026 11.7094L22.0312 15.0774L20.3507 13.3969C20.2636 13.3097 20.1602 13.2406 20.0464 13.1934C19.9326 13.1462 19.8106 13.1219 19.6874 13.1219C19.5642 13.1219 19.4422 13.1462 19.3284 13.1934C19.2146 13.2406 19.1112 13.3097 19.0241 13.3969ZM24.7663 17.8102L23.3601 16.4039L26.7187 13.0371L28.1249 14.4434L24.7663 17.8102Z" fill="#F8511C"/>
</svg>
