<svg width="30" height="30" viewBox="0 0 30 30" fill="none" xmlns="http://www.w3.org/2000/svg">
<path d="M24.375 4.6875H5.625C4.87908 4.6875 4.16371 4.98382 3.63626 5.51126C3.10882 6.03871 2.8125 6.75408 2.8125 7.5V20.625C2.8125 21.3709 3.10882 22.0863 3.63626 22.6137C4.16371 23.1412 4.87908 23.4375 5.625 23.4375H24.375C25.1209 23.4375 25.8363 23.1412 26.3637 22.6137C26.8912 22.0863 27.1875 21.3709 27.1875 20.625V7.5C27.1875 6.75408 26.8912 6.03871 26.3637 5.51126C25.8363 4.98382 25.1209 4.6875 24.375 4.6875ZM25.3125 20.625C25.3125 20.8736 25.2137 21.1121 25.0379 21.2879C24.8621 21.4637 24.6236 21.5625 24.375 21.5625H5.625C5.37636 21.5625 5.1379 21.4637 4.96209 21.2879C4.78627 21.1121 4.6875 20.8736 4.6875 20.625V7.5C4.6875 7.25136 4.78627 7.0129 4.96209 6.83709C5.1379 6.66127 5.37636 6.5625 5.625 6.5625H24.375C24.6236 6.5625 24.8621 6.66127 25.0379 6.83709C25.2137 7.0129 25.3125 7.25136 25.3125 7.5V20.625ZM19.6875 26.25C19.6875 26.4986 19.5887 26.7371 19.4129 26.9129C19.2371 27.0887 18.9986 27.1875 18.75 27.1875H11.25C11.0014 27.1875 10.7629 27.0887 10.5871 26.9129C10.4113 26.7371 10.3125 26.4986 10.3125 26.25C10.3125 26.0014 10.4113 25.7629 10.5871 25.5871C10.7629 25.4113 11.0014 25.3125 11.25 25.3125H18.75C18.9986 25.3125 19.2371 25.4113 19.4129 25.5871C19.5887 25.7629 19.6875 26.0014 19.6875 26.25ZM19.2703 13.282L13.6453 9.53203C13.5041 9.43781 13.3399 9.3837 13.1704 9.37549C13.0008 9.36727 12.8322 9.40526 12.6825 9.48538C12.5328 9.56551 12.4077 9.68478 12.3206 9.83045C12.2334 9.97612 12.1874 10.1427 12.1875 10.3125V17.8125C12.1874 17.9823 12.2334 18.1489 12.3206 18.2946C12.4077 18.4402 12.5328 18.5595 12.6825 18.6396C12.8322 18.7197 13.0008 18.7577 13.1704 18.7495C13.3399 18.7413 13.5041 18.6872 13.6453 18.593L19.2703 14.843C19.3989 14.7574 19.5044 14.6414 19.5773 14.5052C19.6502 14.369 19.6884 14.217 19.6884 14.0625C19.6884 13.908 19.6502 13.756 19.5773 13.6198C19.5044 13.4836 19.3989 13.3676 19.2703 13.282ZM14.0625 16.0605V12.0703L17.0602 14.0625L14.0625 16.0605Z" fill="#F8511C"/>
</svg>
