<svg width="30" height="30" viewBox="0 0 30 30" fill="none" xmlns="http://www.w3.org/2000/svg">
<path d="M18.75 1.875C17.2703 1.87633 15.8119 2.22759 14.4938 2.90011C13.1758 3.57263 12.0354 4.54734 11.166 5.74465C10.2965 6.94197 9.72251 8.32794 9.49088 9.78941C9.25926 11.2509 9.37656 12.7464 9.8332 14.1539L3.08672 20.8992C2.99969 20.9863 2.93067 21.0898 2.88362 21.2036C2.83657 21.3174 2.8124 21.4393 2.8125 21.5625V26.25C2.8125 26.4986 2.91127 26.7371 3.08709 26.9129C3.2629 27.0887 3.50136 27.1875 3.75 27.1875H8.4375C8.68614 27.1875 8.9246 27.0887 9.10041 26.9129C9.27623 26.7371 9.375 26.4986 9.375 26.25V24.375H11.25C11.4986 24.375 11.7371 24.2762 11.9129 24.1004C12.0887 23.9246 12.1875 23.6861 12.1875 23.4375V21.5625H14.0625C14.1857 21.5626 14.3076 21.5384 14.4214 21.4914C14.5352 21.4443 14.6387 21.3753 14.7258 21.2883L15.8461 20.1668C17.1346 20.5851 18.4985 20.7193 19.8438 20.5599C21.1891 20.4006 22.4839 19.9516 23.639 19.2438C24.7941 18.5361 25.7822 17.5864 26.535 16.4601C27.2879 15.3339 27.7878 14.0579 28.0002 12.7199C28.2126 11.382 28.1325 10.0139 27.7654 8.70982C27.3984 7.40578 26.7531 6.19678 25.8739 5.16608C24.9948 4.13537 23.9027 3.30744 22.6729 2.73929C21.4431 2.17115 20.1047 1.87628 18.75 1.875ZM18.75 18.75C17.801 18.7516 16.8603 18.5722 15.9785 18.2215C15.806 18.1466 15.615 18.1254 15.4302 18.1605C15.2455 18.1956 15.0756 18.2854 14.9426 18.4184L13.6746 19.6875H11.25C11.0014 19.6875 10.7629 19.7863 10.5871 19.9621C10.4113 20.1379 10.3125 20.3764 10.3125 20.625V22.5H8.4375C8.18886 22.5 7.9504 22.5988 7.77459 22.7746C7.59877 22.9504 7.5 23.1889 7.5 23.4375V25.3125H4.6875V21.9504L11.5816 15.0574C11.7146 14.9244 11.8044 14.7545 11.8395 14.5698C11.8746 14.385 11.8534 14.194 11.7785 14.0215C11.1857 12.5307 11.0865 10.8891 11.4955 9.33771C11.9046 7.78638 12.8004 6.4071 14.0512 5.40247C15.3021 4.39783 16.8422 3.82079 18.4452 3.7561C20.0483 3.69141 21.6299 4.14248 22.9576 5.04305C24.2854 5.94362 25.2894 7.24624 25.8221 8.75957C26.3548 10.2729 26.3883 11.9172 25.9175 13.4509C25.4466 14.9846 24.4964 16.327 23.2064 17.2808C21.9163 18.2345 20.3544 18.7495 18.75 18.75ZM22.5 8.90625C22.5 9.18438 22.4175 9.45626 22.263 9.68752C22.1085 9.91878 21.8889 10.099 21.6319 10.2055C21.3749 10.3119 21.0922 10.3397 20.8194 10.2855C20.5466 10.2312 20.296 10.0973 20.0994 9.90062C19.9027 9.70395 19.7688 9.45338 19.7145 9.1806C19.6603 8.90781 19.6881 8.62506 19.7945 8.3681C19.901 8.11114 20.0812 7.89152 20.3125 7.737C20.5437 7.58247 20.8156 7.5 21.0938 7.5C21.4667 7.5 21.8244 7.64816 22.0881 7.91188C22.3518 8.1756 22.5 8.53329 22.5 8.90625Z" fill="#F8511C"/>
</svg>
