<svg width="30" height="30" viewBox="0 0 30 30" fill="none" xmlns="http://www.w3.org/2000/svg">
<path d="M8.81133 23.25C8.90986 23.324 9.02202 23.3779 9.1414 23.4086C9.26078 23.4393 9.38503 23.4461 9.50704 23.4287C9.62906 23.4112 9.74644 23.3699 9.85248 23.3071C9.95852 23.2443 10.0511 23.1612 10.125 23.0625C10.6926 22.3057 11.4286 21.6914 12.2748 21.2683C13.1209 20.8453 14.054 20.625 15 20.625C15.946 20.625 16.8791 20.8453 17.7252 21.2683C18.5714 21.6914 19.3074 22.3057 19.875 23.0625C19.9489 23.161 20.0414 23.244 20.1474 23.3067C20.2533 23.3694 20.3705 23.4107 20.4924 23.4281C20.6143 23.4455 20.7384 23.4387 20.8577 23.4082C20.9769 23.3776 21.089 23.3239 21.1875 23.25C21.286 23.1761 21.369 23.0836 21.4317 22.9776C21.4944 22.8717 21.5357 22.7545 21.5531 22.6326C21.5705 22.5107 21.5637 22.3866 21.5332 22.2673C21.5026 22.1481 21.4489 22.036 21.375 21.9375C20.5449 20.8245 19.4379 19.9482 18.1641 19.3957C18.8621 18.7584 19.3512 17.9249 19.5671 17.0046C19.783 16.0843 19.7156 15.1203 19.3738 14.239C19.032 13.3577 18.4318 12.6003 17.6519 12.0663C16.8719 11.5322 15.9488 11.2465 15.0035 11.2465C14.0583 11.2465 13.1351 11.5322 12.3552 12.0663C11.5752 12.6003 10.975 13.3577 10.6332 14.239C10.2914 15.1203 10.224 16.0843 10.4399 17.0046C10.6558 17.9249 11.1449 18.7584 11.843 19.3957C10.5666 19.9472 9.45708 20.8236 8.625 21.9375C8.47569 22.1363 8.41144 22.3862 8.44638 22.6323C8.48133 22.8785 8.6126 23.1006 8.81133 23.25ZM15 13.125C15.5563 13.125 16.1 13.29 16.5625 13.599C17.0251 13.908 17.3855 14.3473 17.5984 14.8612C17.8113 15.3751 17.867 15.9406 17.7585 16.4862C17.6499 17.0318 17.3821 17.5329 16.9887 17.9262C16.5954 18.3196 16.0943 18.5874 15.5487 18.696C15.0031 18.8045 14.4376 18.7488 13.9237 18.5359C13.4098 18.323 12.9705 17.9626 12.6615 17.5C12.3525 17.0375 12.1875 16.4938 12.1875 15.9375C12.1875 15.1916 12.4838 14.4762 13.0113 13.9488C13.5387 13.4213 14.2541 13.125 15 13.125ZM23.4375 2.8125H6.5625C6.06522 2.8125 5.58831 3.01004 5.23667 3.36167C4.88504 3.71331 4.6875 4.19022 4.6875 4.6875V25.3125C4.6875 25.8098 4.88504 26.2867 5.23667 26.6383C5.58831 26.99 6.06522 27.1875 6.5625 27.1875H23.4375C23.9348 27.1875 24.4117 26.99 24.7633 26.6383C25.115 26.2867 25.3125 25.8098 25.3125 25.3125V4.6875C25.3125 4.19022 25.115 3.71331 24.7633 3.36167C24.4117 3.01004 23.9348 2.8125 23.4375 2.8125ZM23.4375 25.3125H6.5625V4.6875H23.4375V25.3125ZM10.3125 7.5C10.3125 7.25136 10.4113 7.0129 10.5871 6.83709C10.7629 6.66127 11.0014 6.5625 11.25 6.5625H18.75C18.9986 6.5625 19.2371 6.66127 19.4129 6.83709C19.5887 7.0129 19.6875 7.25136 19.6875 7.5C19.6875 7.74864 19.5887 7.9871 19.4129 8.16291C19.2371 8.33873 18.9986 8.4375 18.75 8.4375H11.25C11.0014 8.4375 10.7629 8.33873 10.5871 8.16291C10.4113 7.9871 10.3125 7.74864 10.3125 7.5Z" fill="#F8511C"/>
</svg>
