<svg width="30" height="30" viewBox="0 0 30 30" fill="none" xmlns="http://www.w3.org/2000/svg">
<path d="M14.0625 15V5.625C14.0625 5.37636 14.1613 5.1379 14.3371 4.96209C14.5129 4.78627 14.7514 4.6875 15 4.6875C15.2486 4.6875 15.4871 4.78627 15.6629 4.96209C15.8387 5.1379 15.9375 5.37636 15.9375 5.625V15C15.9375 15.2486 15.8387 15.4871 15.6629 15.6629C15.4871 15.8387 15.2486 15.9375 15 15.9375C14.7514 15.9375 14.5129 15.8387 14.3371 15.6629C14.1613 15.4871 14.0625 15.2486 14.0625 15ZM21.1371 5.77734C20.9289 5.64574 20.6773 5.60138 20.4366 5.65383C20.1959 5.70629 19.9856 5.85135 19.851 6.05767C19.7164 6.26398 19.6685 6.51496 19.7175 6.75635C19.7665 6.99775 19.9085 7.21015 20.1129 7.34766C22.8211 9.11367 24.375 11.9027 24.375 15C24.375 17.4864 23.3873 19.871 21.6291 21.6291C19.871 23.3873 17.4864 24.375 15 24.375C12.5136 24.375 10.129 23.3873 8.37087 21.6291C6.61272 19.871 5.625 17.4864 5.625 15C5.625 11.9027 7.17891 9.11367 9.88711 7.34766C10.0915 7.21015 10.2335 6.99775 10.2825 6.75635C10.3315 6.51496 10.2836 6.26398 10.149 6.05767C10.0144 5.85135 9.80408 5.70629 9.56342 5.65383C9.32275 5.60138 9.07111 5.64574 8.86289 5.77734C5.61328 7.89609 3.75 11.257 3.75 15C3.75 17.9837 4.93526 20.8452 7.04505 22.955C9.15483 25.0647 12.0163 26.25 15 26.25C17.9837 26.25 20.8452 25.0647 22.955 22.955C25.0647 20.8452 26.25 17.9837 26.25 15C26.25 11.257 24.3867 7.89609 21.1371 5.77734Z" fill="#F8511C"/>
</svg>
