<svg width="30" height="30" viewBox="0 0 30 30" fill="none" xmlns="http://www.w3.org/2000/svg">
<path d="M19.2762 19.1613C19.4724 19.3582 19.6058 19.6088 19.6597 19.8814C19.7135 20.1541 19.6854 20.4366 19.5788 20.6932C19.4722 20.9499 19.292 21.1693 19.0608 21.3236C18.8297 21.4779 18.558 21.5602 18.2801 21.5602C18.0022 21.5602 17.7305 21.4779 17.4993 21.3236C17.2682 21.1693 17.0879 20.9499 16.9813 20.6932C16.8748 20.4366 16.8466 20.1541 16.9005 19.8814C16.9544 19.6088 17.0878 19.3582 17.284 19.1613C17.4146 19.0302 17.5699 18.9262 17.7408 18.8552C17.9117 18.7843 18.095 18.7477 18.2801 18.7477C18.4652 18.7477 18.6484 18.7843 18.8194 18.8552C18.9903 18.9262 19.1455 19.0302 19.2762 19.1613ZM9.78399 18.2238C9.58781 18.4207 9.45436 18.6713 9.4005 18.9439C9.34663 19.2166 9.37477 19.4991 9.48135 19.7557C9.58792 20.0124 9.76817 20.2318 9.99932 20.3861C10.2305 20.5404 10.5022 20.6227 10.7801 20.6227C11.058 20.6227 11.3297 20.5404 11.5608 20.3861C11.792 20.2318 11.9722 20.0124 12.0788 19.7557C12.1854 19.4991 12.2135 19.2166 12.1597 18.9439C12.1058 18.6713 11.9724 18.4207 11.7762 18.2238C11.6456 18.0931 11.4905 17.9894 11.3198 17.9186C11.149 17.8478 10.9661 17.8114 10.7813 17.8114C10.5965 17.8114 10.4135 17.8478 10.2427 17.9186C10.072 17.9894 9.91694 18.0931 9.78633 18.2238H9.78399ZM10.8387 13.6535C11.0349 13.4567 11.1683 13.2061 11.2222 12.9334C11.276 12.6608 11.2479 12.3783 11.1413 12.1216C11.0347 11.8649 10.8545 11.6456 10.6233 11.4913C10.3922 11.337 10.1205 11.2546 9.84258 11.2546C9.56466 11.2546 9.29297 11.337 9.06182 11.4913C8.83067 11.6456 8.65042 11.8649 8.54385 12.1216C8.43727 12.3783 8.40913 12.6608 8.463 12.9334C8.51686 13.2061 8.65031 13.4567 8.84649 13.6535C8.97729 13.7845 9.13265 13.8883 9.30367 13.9591C9.47468 14.0299 9.65799 14.0662 9.84307 14.066C10.0282 14.0657 10.2114 14.029 10.3822 13.9578C10.5531 13.8866 10.7082 13.7824 10.8387 13.6512V13.6535ZM16.4637 13.5363C16.2668 13.3401 16.0162 13.2067 15.7436 13.1528C15.4709 13.099 15.1884 13.1271 14.9318 13.2337C14.6751 13.3403 14.4557 13.5205 14.3014 13.7517C14.1471 13.9828 14.0648 14.2545 14.0648 14.5324C14.0648 14.8103 14.1471 15.082 14.3014 15.3132C14.4557 15.5443 14.6751 15.7246 14.9318 15.8312C15.1884 15.9377 15.4709 15.9659 15.7436 15.912C16.0162 15.8581 16.2668 15.7247 16.4637 15.5285C16.5948 15.3979 16.6988 15.2426 16.7698 15.0717C16.8407 14.9008 16.8773 14.7175 16.8773 14.5324C16.8773 14.3473 16.8407 14.1641 16.7698 13.9931C16.6988 13.8222 16.5948 13.667 16.4637 13.5363ZM27.1875 15C27.1875 17.4105 26.4727 19.7668 25.1335 21.771C23.7944 23.7752 21.8909 25.3373 19.664 26.2598C17.437 27.1822 14.9865 27.4236 12.6223 26.9533C10.2582 26.4831 8.08659 25.3223 6.38214 23.6179C4.67769 21.9134 3.51694 19.7418 3.04668 17.3777C2.57643 15.0135 2.81778 12.563 3.74022 10.336C4.66267 8.10907 6.22477 6.20564 8.22899 4.86646C10.2332 3.52728 12.5895 2.8125 15 2.8125C15.2486 2.8125 15.4871 2.91127 15.6629 3.08709C15.8387 3.2629 15.9375 3.50136 15.9375 3.75C15.9375 4.9932 16.4314 6.18549 17.3104 7.06456C18.1895 7.94364 19.3818 8.4375 20.625 8.4375C20.8736 8.4375 21.1121 8.53627 21.2879 8.71209C21.4637 8.8879 21.5625 9.12636 21.5625 9.375C21.5625 10.6182 22.0564 11.8105 22.9354 12.6896C23.8145 13.5686 25.0068 14.0625 26.25 14.0625C26.4986 14.0625 26.7371 14.1613 26.9129 14.3371C27.0887 14.5129 27.1875 14.7514 27.1875 15ZM25.2762 15.866C23.8721 15.6529 22.5747 14.9911 21.5779 13.9795C20.5811 12.968 19.9385 11.661 19.7461 10.2539C18.339 10.0615 17.032 9.41888 16.0205 8.42209C15.0089 7.42531 14.3471 6.12791 14.134 4.72383C12.1751 4.88893 10.3042 5.61049 8.74179 6.80349C7.17935 7.99648 5.99044 9.61121 5.31515 11.4574C4.63987 13.3036 4.50633 15.3044 4.93029 17.2239C5.35425 19.1435 6.31803 20.9019 7.70808 22.2919C9.09812 23.682 10.8565 24.6458 12.7761 25.0697C14.6956 25.4937 16.6964 25.3601 18.5426 24.6849C20.3888 24.0096 22.0035 22.8207 23.1965 21.2582C24.3895 19.6958 25.1111 17.8249 25.2762 15.866Z" fill="#F8511C"/>
</svg>
