<svg width="30" height="30" viewBox="0 0 30 30" fill="none" xmlns="http://www.w3.org/2000/svg">
<path d="M20.6248 9.375C21.3665 9.375 22.0915 9.15507 22.7082 8.74301C23.3249 8.33096 23.8055 7.74529 24.0893 7.06006C24.3732 6.37484 24.4474 5.62084 24.3027 4.89341C24.158 4.16598 23.8009 3.4978 23.2764 2.97335C22.752 2.4489 22.0838 2.09175 21.3564 1.94706C20.629 1.80236 19.875 1.87662 19.1897 2.16045C18.5045 2.44428 17.9188 2.92493 17.5068 3.54161C17.0947 4.1583 16.8748 4.88332 16.8748 5.625C16.8748 6.61956 17.2699 7.57339 17.9731 8.27665C18.6764 8.97991 19.6302 9.375 20.6248 9.375ZM20.6248 3.75C20.9956 3.75 21.3581 3.85997 21.6665 4.066C21.9748 4.27202 22.2152 4.56486 22.3571 4.90747C22.499 5.25008 22.5361 5.62708 22.4638 5.9908C22.3914 6.35451 22.2128 6.6886 21.9506 6.95083C21.6884 7.21305 21.3543 7.39163 20.9906 7.46397C20.6269 7.53632 20.2499 7.49919 19.9073 7.35728C19.5646 7.21536 19.2718 6.97504 19.0658 6.6667C18.8598 6.35835 18.7498 5.99584 18.7498 5.625C18.7498 5.12772 18.9473 4.65081 19.299 4.29918C19.6506 3.94755 20.1275 3.75 20.6248 3.75ZM19.6873 19.6875C19.6873 21.1709 19.2474 22.6209 18.4233 23.8543C17.5992 25.0876 16.4279 26.0489 15.0574 26.6166C13.687 27.1843 12.179 27.3328 10.7241 27.0434C9.26926 26.754 7.93288 26.0397 6.88399 24.9908C5.8351 23.9419 5.12079 22.6055 4.8314 21.1507C4.54201 19.6958 4.69054 18.1878 5.25819 16.8174C5.82585 15.4469 6.78715 14.2756 8.02051 13.4515C9.25388 12.6274 10.7039 12.1875 12.1873 12.1875C12.4359 12.1875 12.6744 12.2863 12.8502 12.4621C13.026 12.6379 13.1248 12.8764 13.1248 13.125C13.1248 13.3736 13.026 13.6121 12.8502 13.7879C12.6744 13.9637 12.4359 14.0625 12.1873 14.0625C11.0748 14.0625 9.98723 14.3924 9.06221 15.0105C8.13718 15.6286 7.41621 16.5071 6.99047 17.5349C6.56473 18.5627 6.45333 19.6937 6.67037 20.7849C6.88742 21.876 7.42315 22.8783 8.20982 23.665C8.99649 24.4516 9.99877 24.9874 11.0899 25.2044C12.1811 25.4215 13.3121 25.3101 14.3399 24.8843C15.3677 24.4586 16.2462 23.7376 16.8643 22.8126C17.4824 21.8876 17.8123 20.8 17.8123 19.6875C17.8123 19.4389 17.9111 19.2004 18.0869 19.0246C18.2627 18.8488 18.5012 18.75 18.7498 18.75C18.9984 18.75 19.2369 18.8488 19.4127 19.0246C19.5885 19.2004 19.6873 19.4389 19.6873 19.6875ZM24.1627 15.3434C24.2504 15.4507 24.3133 15.5762 24.3467 15.7107C24.3802 15.8453 24.3834 15.9856 24.356 16.1215L22.481 25.4965C22.4385 25.7089 22.3238 25.9 22.1563 26.0374C21.9888 26.1748 21.7789 26.2499 21.5623 26.25C21.5001 26.2501 21.4381 26.2438 21.3771 26.2313C21.1335 26.1823 20.9193 26.0387 20.7815 25.8319C20.6438 25.6252 20.5937 25.3722 20.6424 25.1285L22.2935 16.875H14.9998C14.8351 16.8752 14.6733 16.8321 14.5306 16.7499C14.3878 16.6677 14.2693 16.5494 14.1869 16.4069C14.1044 16.2643 14.061 16.1025 14.0609 15.9378C14.0608 15.7732 14.1042 15.6114 14.1865 15.4688L16.5373 11.3789C14.9029 10.5252 13.0532 10.1718 11.2192 10.3629C9.38517 10.5541 7.64808 11.2812 6.22479 12.4535C6.13186 12.5423 6.02167 12.611 5.90105 12.6554C5.78044 12.6999 5.65198 12.719 5.52367 12.7117C5.39535 12.7043 5.26991 12.6707 5.15514 12.6128C5.04037 12.555 4.93872 12.4741 4.85651 12.3753C4.7743 12.2765 4.71328 12.1619 4.67725 12.0385C4.64121 11.9151 4.63093 11.7857 4.64704 11.6582C4.66315 11.5306 4.70531 11.4078 4.7709 11.2973C4.83649 11.1867 4.92411 11.0909 5.02831 11.0156C6.87578 9.4911 9.16162 8.59603 11.5531 8.46071C13.9445 8.32539 16.3167 8.95689 18.3244 10.2633C18.5252 10.3941 18.6683 10.5967 18.7243 10.8297C18.7803 11.0627 18.745 11.3083 18.6256 11.516L16.6193 15H23.4373C23.5761 15 23.7131 15.0308 23.8386 15.0901C23.964 15.1495 24.0747 15.236 24.1627 15.3434Z" fill="#F8511C"/>
</svg>
