<svg width="30" height="30" viewBox="0 0 30 30" fill="none" xmlns="http://www.w3.org/2000/svg">
<path d="M23.8215 6.04199V2.13269M23.8215 6.04199L27.3349 4.85221M23.8215 6.04199L25.9751 9.27167M23.8215 6.04199L20.3091 4.85221M23.8215 6.04199L21.4427 9.27167" stroke="#F8511C" stroke-width="2" stroke-linecap="round"/>
<path d="M8.95787 15.5043C8.95787 14.952 8.51016 14.5043 7.95787 14.5043C7.40559 14.5043 6.95787 14.952 6.95787 15.5043V23.04C6.95787 23.5923 7.40559 24.04 7.95787 24.04C8.51016 24.04 8.95787 23.5923 8.95787 23.04V15.5043ZM13.7173 15.5043C13.7173 14.952 13.2696 14.5043 12.7173 14.5043C12.165 14.5043 11.7173 14.952 11.7173 15.5043V23.04C11.7173 23.5923 12.165 24.04 12.7173 24.04C13.2696 24.04 13.7173 23.5923 13.7173 23.04V15.5043ZM18.3329 15.5043C18.3329 14.952 17.8852 14.5043 17.3329 14.5043C16.7806 14.5043 16.3329 14.952 16.3329 15.5043V23.04C16.3329 23.5923 16.7806 24.04 17.3329 24.04C17.8852 24.04 18.3329 23.5923 18.3329 23.04V15.5043ZM23.0923 15.5043C23.0923 14.952 22.6446 14.5043 22.0923 14.5043C21.54 14.5043 21.0923 14.952 21.0923 15.5043V23.04C21.0923 23.5923 21.54 24.04 22.0923 24.04C22.6446 24.04 23.0923 23.5923 23.0923 23.04V15.5043ZM5.8584 12.4249H24.335C25.4396 12.4249 26.335 13.3203 26.335 14.4249V24.1875C26.335 25.2921 25.4396 26.1875 24.335 26.1875H5.8584C4.75383 26.1875 3.8584 25.2921 3.8584 24.1875V14.4249C3.8584 13.3203 4.75383 12.4249 5.8584 12.4249Z" stroke="#F8511C" stroke-width="2" stroke-linecap="round"/>
</svg>
