<svg width="30" height="30" viewBox="0 0 30 30" fill="none" xmlns="http://www.w3.org/2000/svg">
<path d="M28.9945 13.7109L27.3539 9.60938C27.2147 9.26235 26.9745 8.96511 26.6645 8.75617C26.3544 8.54723 25.9887 8.43621 25.6148 8.4375H21.5625V7.5C21.5625 7.25136 21.4637 7.0129 21.2879 6.83709C21.1121 6.66127 20.8736 6.5625 20.625 6.5625H2.8125C2.31522 6.5625 1.83831 6.76004 1.48667 7.11167C1.13504 7.46331 0.9375 7.94022 0.9375 8.4375V21.5625C0.9375 22.0598 1.13504 22.5367 1.48667 22.8883C1.83831 23.24 2.31522 23.4375 2.8125 23.4375H4.80469C5.01122 24.2441 5.48034 24.9591 6.1381 25.4697C6.79586 25.9802 7.60484 26.2574 8.4375 26.2574C9.27016 26.2574 10.0791 25.9802 10.7369 25.4697C11.3947 24.9591 11.8638 24.2441 12.0703 23.4375H17.9297C18.1362 24.2441 18.6053 24.9591 19.2631 25.4697C19.9209 25.9802 20.7298 26.2574 21.5625 26.2574C22.3952 26.2574 23.2041 25.9802 23.8619 25.4697C24.5197 24.9591 24.9888 24.2441 25.1953 23.4375H27.1875C27.6848 23.4375 28.1617 23.24 28.5133 22.8883C28.865 22.5367 29.0625 22.0598 29.0625 21.5625V14.0625C29.0628 13.942 29.0397 13.8226 28.9945 13.7109ZM21.5625 10.3125H25.6148L26.7398 13.125H21.5625V10.3125ZM2.8125 8.4375H19.6875V15.9375H2.8125V8.4375ZM8.4375 24.375C8.06666 24.375 7.70415 24.265 7.39581 24.059C7.08746 23.853 6.84714 23.5601 6.70523 23.2175C6.56331 22.8749 6.52618 22.4979 6.59853 22.1342C6.67087 21.7705 6.84945 21.4364 7.11167 21.1742C7.3739 20.912 7.70799 20.7334 8.07171 20.661C8.43542 20.5887 8.81242 20.6258 9.15503 20.7677C9.49764 20.9096 9.79048 21.15 9.99651 21.4583C10.2025 21.7666 10.3125 22.1292 10.3125 22.5C10.3125 22.9973 10.115 23.4742 9.76332 23.8258C9.41169 24.1775 8.93478 24.375 8.4375 24.375ZM17.9297 21.5625H12.0703C11.8638 20.7559 11.3947 20.0409 10.7369 19.5303C10.0791 19.0198 9.27016 18.7426 8.4375 18.7426C7.60484 18.7426 6.79586 19.0198 6.1381 19.5303C5.48034 20.0409 5.01122 20.7559 4.80469 21.5625H2.8125V17.8125H19.6875V19.2551C19.2564 19.5043 18.8791 19.8365 18.5773 20.2326C18.2756 20.6287 18.0554 21.0807 17.9297 21.5625ZM21.5625 24.375C21.1917 24.375 20.8291 24.265 20.5208 24.059C20.2125 23.853 19.9721 23.5601 19.8302 23.2175C19.6883 22.8749 19.6512 22.4979 19.7235 22.1342C19.7959 21.7705 19.9745 21.4364 20.2367 21.1742C20.4989 20.912 20.833 20.7334 21.1967 20.661C21.5604 20.5887 21.9374 20.6258 22.28 20.7677C22.6226 20.9096 22.9155 21.15 23.1215 21.4583C23.3275 21.7666 23.4375 22.1292 23.4375 22.5C23.4375 22.9973 23.24 23.4742 22.8883 23.8258C22.5367 24.1775 22.0598 24.375 21.5625 24.375ZM27.1875 21.5625H25.1953C24.9863 20.7578 24.5163 20.0452 23.8589 19.5363C23.2015 19.0273 22.3939 18.7508 21.5625 18.75V15H27.1875V21.5625Z" fill="#F8511C"/>
</svg>
