<svg width="30" height="30" viewBox="0 0 30 30" fill="none" xmlns="http://www.w3.org/2000/svg">
<path d="M15.9377 9.37499V14.4691L20.1705 17.0086C20.3837 17.1366 20.5373 17.3441 20.5976 17.5854C20.6578 17.8268 20.6197 18.0821 20.4916 18.2953C20.3636 18.5085 20.1561 18.6621 19.9148 18.7223C19.6735 18.7826 19.4181 18.7445 19.2049 18.6164L14.5174 15.8039C14.3787 15.7205 14.2639 15.6027 14.1842 15.4618C14.1045 15.3209 14.0627 15.1618 14.0627 15V9.37499C14.0627 9.12635 14.1615 8.8879 14.3373 8.71208C14.5131 8.53627 14.7516 8.43749 15.0002 8.43749C15.2489 8.43749 15.4873 8.53627 15.6631 8.71208C15.8389 8.8879 15.9377 9.12635 15.9377 9.37499ZM26.2502 6.56249C26.0016 6.56249 25.7631 6.66127 25.5873 6.83708C25.4115 7.0129 25.3127 7.25135 25.3127 7.49999V9.60937C24.5686 8.74687 23.8092 7.91601 22.9549 7.05117C21.3914 5.48754 19.4019 4.41932 17.2348 3.97998C15.0677 3.54064 12.8192 3.74966 10.7702 4.58093C8.72122 5.4122 6.96264 6.82885 5.7142 8.65387C4.46576 10.4789 3.78281 12.6314 3.7507 14.8423C3.71859 17.0532 4.33873 19.2246 5.53364 21.0851C6.72856 22.9457 8.44525 24.4128 10.4692 25.3032C12.4932 26.1936 14.7347 26.4679 16.9136 26.0916C19.0926 25.7154 21.1123 24.7054 22.7205 23.1879C22.8101 23.1032 22.8821 23.0018 22.9325 22.8893C22.9828 22.7768 23.0105 22.6556 23.014 22.5324C23.0175 22.4092 22.9967 22.2865 22.9528 22.1714C22.9088 22.0562 22.8427 21.9509 22.758 21.8613C22.6734 21.7718 22.5719 21.6997 22.4595 21.6494C22.347 21.599 22.2257 21.5713 22.1025 21.5678C21.9793 21.5643 21.8567 21.5852 21.7415 21.6291C21.6264 21.673 21.521 21.7392 21.4315 21.8238C20.0909 23.0872 18.4078 23.9276 16.5925 24.2402C14.7771 24.5528 12.9099 24.3236 11.224 23.5813C9.53807 22.839 8.1082 21.6165 7.11292 20.0665C6.11764 18.5164 5.60106 16.7075 5.62769 14.8656C5.65432 13.0238 6.22297 11.2305 7.26264 9.70989C8.30231 8.18925 9.76692 7.0086 11.4736 6.31536C13.1802 5.62212 15.0533 5.44703 16.8589 5.81194C18.6644 6.17684 20.3225 7.06559 21.626 8.36718C22.5799 9.33281 23.4154 10.2633 24.258 11.25H21.5627C21.3141 11.25 21.0756 11.3488 20.8998 11.5246C20.724 11.7004 20.6252 11.9389 20.6252 12.1875C20.6252 12.4361 20.724 12.6746 20.8998 12.8504C21.0756 13.0262 21.3141 13.125 21.5627 13.125H26.2502C26.4989 13.125 26.7373 13.0262 26.9131 12.8504C27.0889 12.6746 27.1877 12.4361 27.1877 12.1875V7.49999C27.1877 7.25135 27.0889 7.0129 26.9131 6.83708C26.7373 6.66127 26.4989 6.56249 26.2502 6.56249Z" fill="#F8511C"/>
</svg>
