<svg width="30" height="30" viewBox="0 0 30 30" fill="none" xmlns="http://www.w3.org/2000/svg">
<path d="M15 2.8125C12.5895 2.8125 10.2332 3.52728 8.22899 4.86646C6.22477 6.20564 4.66267 8.10907 3.74022 10.336C2.81778 12.563 2.57643 15.0135 3.04668 17.3777C3.51694 19.7418 4.67769 21.9134 6.38214 23.6179C8.08659 25.3223 10.2582 26.4831 12.6223 26.9533C14.9865 27.4236 17.437 27.1822 19.664 26.2598C21.8909 25.3373 23.7944 23.7752 25.1335 21.771C26.4727 19.7668 27.1875 17.4105 27.1875 15C27.1841 11.7687 25.899 8.67077 23.6141 6.3859C21.3292 4.10104 18.2313 2.81591 15 2.8125ZM15 25.3125C12.9604 25.3125 10.9666 24.7077 9.27069 23.5745C7.57481 22.4414 6.25303 20.8308 5.4725 18.9464C4.69197 17.0621 4.48775 14.9886 4.88566 12.9881C5.28357 10.9877 6.26574 9.15019 7.70797 7.70796C9.1502 6.26573 10.9877 5.28356 12.9881 4.88565C14.9886 4.48774 17.0621 4.69196 18.9464 5.47249C20.8308 6.25302 22.4414 7.5748 23.5745 9.27068C24.7077 10.9666 25.3125 12.9604 25.3125 15C25.3094 17.7341 24.2219 20.3553 22.2886 22.2886C20.3553 24.2219 17.7341 25.3094 15 25.3125ZM15 8.4375C14.0731 8.4377 13.167 8.71272 12.3963 9.2278C11.6256 9.74289 11.025 10.4749 10.6703 11.3313C10.3156 12.1877 10.2227 13.1301 10.4035 14.0392C10.5843 14.9484 11.0306 15.7835 11.6859 16.4391L10.4133 19.6359C10.3284 19.8492 10.2969 20.08 10.3217 20.3082C10.3465 20.5364 10.4268 20.7551 10.5556 20.9451C10.6844 21.1351 10.8577 21.2907 11.0604 21.3984C11.2632 21.506 11.4892 21.5623 11.7188 21.5625H18.2813C18.5108 21.5623 18.7368 21.506 18.9396 21.3984C19.1423 21.2907 19.3157 21.1351 19.4444 20.9451C19.5732 20.7551 19.6535 20.5364 19.6783 20.3082C19.7031 20.08 19.6717 19.8492 19.5867 19.6359L18.3141 16.4391C18.9694 15.7835 19.4157 14.9484 19.5965 14.0392C19.7773 13.1301 19.6844 12.1877 19.3297 11.3313C18.975 10.4749 18.3744 9.74289 17.6037 9.2278C16.833 8.71272 15.927 8.4377 15 8.4375ZM16.3254 16.5117L17.5898 19.6875H12.4102L13.6746 16.5117C13.7518 16.3179 13.7622 16.1038 13.704 15.9035C13.6459 15.7031 13.5225 15.5278 13.3535 15.4055C12.8714 15.0574 12.5121 14.5654 12.3271 14.0003C12.1421 13.4351 12.141 12.8259 12.3239 12.2601C12.5068 11.6943 12.8644 11.201 13.3452 10.8511C13.826 10.5013 14.4054 10.3128 15 10.3128C15.5946 10.3128 16.174 10.5013 16.6548 10.8511C17.1356 11.201 17.4932 11.6943 17.6761 12.2601C17.859 12.8259 17.8579 13.4351 17.6729 14.0003C17.4879 14.5654 17.1286 15.0574 16.6465 15.4055C16.4775 15.5278 16.3542 15.7031 16.296 15.9035C16.2378 16.1038 16.2482 16.3179 16.3254 16.5117Z" fill="#F8511C"/>
</svg>
