<svg width="30" height="30" viewBox="0 0 30 30" fill="none" xmlns="http://www.w3.org/2000/svg">
<path d="M7.5 27.6563C7.5 27.9344 7.41753 28.2063 7.263 28.4375C7.10848 28.6688 6.88886 28.849 6.6319 28.9555C6.37494 29.0619 6.09219 29.0897 5.8194 29.0355C5.54662 28.9812 5.29605 28.8473 5.09938 28.6506C4.90271 28.454 4.76878 28.2034 4.71452 27.9306C4.66026 27.6578 4.68811 27.3751 4.79454 27.1181C4.90098 26.8612 5.08122 26.6415 5.31248 26.487C5.54374 26.3325 5.81562 26.25 6.09375 26.25C6.46671 26.25 6.8244 26.3982 7.08812 26.6619C7.35184 26.9256 7.5 27.2833 7.5 27.6563ZM9.84375 22.5C9.56562 22.5 9.29374 22.5825 9.06248 22.737C8.83122 22.8915 8.65098 23.1112 8.54455 23.3681C8.43811 23.6251 8.41026 23.9078 8.46452 24.1806C8.51878 24.4534 8.65271 24.704 8.84938 24.9006C9.04605 25.0973 9.29662 25.2312 9.5694 25.2855C9.84219 25.3397 10.1249 25.3119 10.3819 25.2055C10.6389 25.099 10.8585 24.9188 11.013 24.6875C11.1675 24.4563 11.25 24.1844 11.25 23.9063C11.25 23.5333 11.1018 23.1756 10.8381 22.9119C10.5744 22.6482 10.2167 22.5 9.84375 22.5ZM2.34375 22.5C2.06562 22.5 1.79374 22.5825 1.56248 22.737C1.33122 22.8915 1.15098 23.1112 1.04455 23.3681C0.938109 23.6251 0.910261 23.9078 0.964521 24.1806C1.01878 24.4534 1.15271 24.704 1.34938 24.9006C1.54605 25.0973 1.79662 25.2312 2.0694 25.2855C2.34219 25.3397 2.62494 25.3119 2.8819 25.2055C3.13886 25.099 3.35848 24.9188 3.513 24.6875C3.66753 24.4563 3.75 24.1844 3.75 23.9063C3.75 23.5333 3.60184 23.1756 3.33812 22.9119C3.0744 22.6482 2.71671 22.5 2.34375 22.5ZM6.09375 18.75C5.81562 18.75 5.54374 18.8325 5.31248 18.987C5.08122 19.1415 4.90098 19.3612 4.79454 19.6181C4.68811 19.8751 4.66026 20.1578 4.71452 20.4306C4.76878 20.7034 4.90271 20.954 5.09938 21.1506C5.29605 21.3473 5.54662 21.4812 5.8194 21.5355C6.09219 21.5897 6.37494 21.5619 6.6319 21.4555C6.88886 21.349 7.10848 21.1688 7.263 20.9375C7.41753 20.7063 7.5 20.4344 7.5 20.1563C7.5 19.7833 7.35184 19.4256 7.08812 19.1619C6.8244 18.8982 6.46671 18.75 6.09375 18.75ZM30 4.68751C30 4.93615 29.9012 5.17461 29.7254 5.35042C29.5496 5.52624 29.3111 5.62501 29.0625 5.62501H25.7004L22.4367 8.88985L19.8984 23.7481C19.8413 24.0875 19.6918 24.4047 19.4664 24.6648C19.241 24.925 18.9483 25.118 18.6204 25.2228C18.2925 25.3276 17.9421 25.3402 17.6075 25.259C17.273 25.1779 16.9673 25.0063 16.7238 24.7629L5.23945 13.2785C4.99571 13.0349 4.82383 12.7288 4.74269 12.3938C4.66156 12.0589 4.6743 11.7081 4.77954 11.3799C4.88477 11.0517 5.07842 10.7589 5.33921 10.5336C5.6 10.3083 5.91784 10.1592 6.25781 10.1027L21.1102 7.56329L24.375 4.29962C24.5485 4.12475 24.755 3.98611 24.9825 3.89176C25.2101 3.79741 25.4541 3.74922 25.7004 3.75001H29.0625C29.3111 3.75001 29.5496 3.84878 29.7254 4.0246C29.9012 4.20041 30 4.43887 30 4.68751ZM20.4152 9.58478L6.5625 11.9531L18.0469 23.4375L20.4152 9.58478Z" fill="#F8511C"/>
</svg>
