<svg width="30" height="30" viewBox="0 0 30 30" fill="none" xmlns="http://www.w3.org/2000/svg">
<path d="M21.5496 17.9695C21.3065 19.3274 20.6532 20.5782 19.6777 21.5535C18.7022 22.5288 17.4513 23.1818 16.0934 23.4246C16.0418 23.4329 15.9897 23.4372 15.9375 23.4375C15.7023 23.4374 15.4758 23.349 15.3028 23.1897C15.1298 23.0304 15.0229 22.812 15.0035 22.5776C14.984 22.3432 15.0533 22.1101 15.1977 21.9245C15.342 21.7389 15.5509 21.6142 15.7828 21.5754C17.7246 21.2484 19.3723 19.6008 19.7016 17.6555C19.7432 17.4102 19.8806 17.1916 20.0834 17.0477C20.2863 16.9037 20.538 16.8462 20.7832 16.8879C21.0284 16.9295 21.2471 17.0669 21.391 17.2697C21.535 17.4726 21.5924 17.7243 21.5508 17.9695H21.5496ZM25.3125 16.875C25.3125 19.61 24.226 22.2331 22.292 24.167C20.3581 26.101 17.735 27.1875 15 27.1875C12.265 27.1875 9.64193 26.101 7.70796 24.167C5.77399 22.2331 4.6875 19.61 4.6875 16.875C4.6875 13.6031 5.97656 10.2574 8.51484 6.93163C8.59519 6.82633 8.69694 6.73924 8.81339 6.67611C8.92984 6.61298 9.05834 6.57525 9.19044 6.5654C9.32253 6.55554 9.45521 6.57379 9.57974 6.61894C9.70426 6.66409 9.81781 6.73512 9.91289 6.82734L12.7395 9.5707L15.3176 2.4914C15.3691 2.3502 15.4538 2.22346 15.5645 2.12186C15.6753 2.02026 15.8088 1.94677 15.9539 1.90759C16.099 1.86842 16.2514 1.8647 16.3983 1.89676C16.5451 1.92881 16.6821 1.99571 16.7977 2.09179C19.3605 4.21874 25.3125 9.9082 25.3125 16.875ZM23.4375 16.875C23.4375 11.4738 19.2434 6.80624 16.616 4.41445L14.0062 11.5711C13.9527 11.7181 13.8632 11.8493 13.7459 11.9529C13.6286 12.0564 13.4873 12.129 13.3348 12.1639C13.1823 12.1989 13.0235 12.1951 12.8729 12.153C12.7222 12.1108 12.5845 12.0316 12.4723 11.9226L9.38203 8.92499C7.51055 11.6262 6.5625 14.2969 6.5625 16.875C6.5625 19.1128 7.45145 21.2589 9.03379 22.8412C10.6161 24.4235 12.7622 25.3125 15 25.3125C17.2378 25.3125 19.3839 24.4235 20.9662 22.8412C22.5486 21.2589 23.4375 19.1128 23.4375 16.875Z" fill="#F8511C"/>
</svg>
