<svg width="30" height="30" viewBox="0 0 30 30" fill="none" xmlns="http://www.w3.org/2000/svg">
<g clip-path="url(#clip0_2733_1232)">
<path d="M20.4609 0.599976L27.6094 7.74841H21.6328C20.9856 7.74841 20.4609 7.22374 20.4609 6.57654V0.599976Z" fill="#8D9295"/>
<path fill-rule="evenodd" clip-rule="evenodd" d="M6.04688 0.599976C5.39967 0.599976 4.875 1.12464 4.875 1.77185V29.4281C4.875 30.0753 5.39967 30.6 6.04688 30.6H26.4375C27.0847 30.6 27.6094 30.0753 27.6094 29.4281V7.74841H21.6328C20.9856 7.74841 20.4609 7.22374 20.4609 6.57654V0.599976H6.04688Z" fill="#E4F3FB"/>
<path d="M3 16.6547C3 16.0074 3.52467 15.4828 4.17188 15.4828H22.2188C22.866 15.4828 23.3906 16.0074 23.3906 16.6547V24.8578C23.3906 25.505 22.866 26.0297 22.2188 26.0297H4.17188C3.52467 26.0297 3 25.505 3 24.8578V16.6547Z" fill="#022E9F"/>
<path d="M6.31183 23.0306C6.26373 23.0306 6.22284 23.0144 6.18918 22.982C6.15551 22.9496 6.13867 22.9102 6.13867 22.8639V18.3431C6.13867 18.2922 6.15551 18.2505 6.18918 18.2181C6.22284 18.1857 6.26373 18.1695 6.31183 18.1695H8.07223C8.55803 18.1695 8.95725 18.2412 9.26989 18.3848C9.58734 18.5283 9.82542 18.7412 9.98415 19.0236C10.1477 19.3061 10.2319 19.651 10.2367 20.0584C10.2463 20.2621 10.2511 20.4426 10.2511 20.6C10.2511 20.7574 10.2463 20.9357 10.2367 21.1348C10.227 21.5653 10.1453 21.9218 9.99136 22.2042C9.83745 22.482 9.60417 22.6903 9.29153 22.8292C8.9837 22.9635 8.58929 23.0306 8.10831 23.0306H6.31183ZM7.14153 22.232H8.07223C8.34158 22.232 8.56043 22.1949 8.72878 22.1209C8.89712 22.0468 9.01977 21.9287 9.09673 21.7667C9.1785 21.6 9.22179 21.3824 9.2266 21.1139C9.23141 20.975 9.23381 20.8547 9.23381 20.7528C9.23862 20.6463 9.23862 20.5422 9.23381 20.4403C9.23381 20.3338 9.23141 20.2135 9.2266 20.0792C9.21698 19.6996 9.11838 19.4195 8.93079 19.2389C8.74321 19.0584 8.445 18.9681 8.03616 18.9681H7.14153V22.232Z" fill="white"/>
<path d="M13.1523 23.1C12.7243 23.1 12.3563 23.0329 12.0485 22.8986C11.7406 22.7598 11.5002 22.5491 11.327 22.2667C11.1538 21.9797 11.0601 21.6232 11.0456 21.1973C11.0408 20.9982 11.0384 20.8014 11.0384 20.607C11.0384 20.4125 11.0408 20.2135 11.0456 20.0098C11.0601 19.5885 11.1562 19.2366 11.3342 18.9542C11.5122 18.6718 11.7551 18.4588 12.0629 18.3153C12.3755 18.1718 12.7387 18.1 13.1523 18.1C13.566 18.1 13.9291 18.1718 14.2418 18.3153C14.5544 18.4588 14.7997 18.6718 14.9777 18.9542C15.1556 19.2366 15.2518 19.5885 15.2663 20.0098C15.2759 20.2135 15.2807 20.4125 15.2807 20.607C15.2807 20.8014 15.2759 20.9982 15.2663 21.1973C15.2518 21.6232 15.158 21.9797 14.9849 22.2667C14.8117 22.5491 14.5688 22.7598 14.2562 22.8986C13.9484 23.0329 13.5804 23.1 13.1523 23.1ZM13.1523 22.3014C13.465 22.3014 13.7199 22.2135 13.9171 22.0375C14.1143 21.857 14.2201 21.5653 14.2346 21.1625C14.2442 20.9588 14.249 20.7713 14.249 20.6C14.249 20.4241 14.2442 20.2366 14.2346 20.0375C14.2249 19.769 14.172 19.5514 14.0758 19.3848C13.9844 19.2135 13.8594 19.0908 13.7007 19.0167C13.5419 18.938 13.3592 18.8986 13.1523 18.8986C12.9503 18.8986 12.77 18.938 12.6112 19.0167C12.4525 19.0908 12.325 19.2135 12.2288 19.3848C12.1375 19.5514 12.087 19.769 12.0773 20.0375C12.0725 20.2366 12.0701 20.4241 12.0701 20.6C12.0701 20.7713 12.0725 20.9588 12.0773 21.1625C12.0918 21.5653 12.1976 21.857 12.3948 22.0375C12.592 22.2135 12.8445 22.3014 13.1523 22.3014Z" fill="white"/>
<path d="M18.1761 23.1C17.7288 23.1 17.3488 23.026 17.0361 22.8778C16.7283 22.725 16.4926 22.5098 16.3291 22.232C16.1656 21.9496 16.0742 21.6116 16.0549 21.2181C16.0501 21.0283 16.0477 20.8246 16.0477 20.607C16.0477 20.3894 16.0501 20.1811 16.0549 19.982C16.0742 19.5931 16.1656 19.2574 16.3291 18.975C16.4974 18.6926 16.7355 18.4774 17.0434 18.3292C17.356 18.1764 17.7336 18.1 18.1761 18.1C18.5031 18.1 18.7965 18.1417 19.0563 18.225C19.316 18.3084 19.5373 18.4241 19.72 18.5723C19.9028 18.7158 20.0447 18.8848 20.1457 19.0792C20.2467 19.2736 20.2996 19.4843 20.3044 19.7111C20.3092 19.7528 20.2948 19.7875 20.2611 19.8153C20.2323 19.8431 20.1962 19.857 20.1529 19.857H19.4675C19.4146 19.857 19.3713 19.8454 19.3377 19.8223C19.304 19.7945 19.2799 19.7505 19.2655 19.6903C19.1886 19.3848 19.0563 19.1764 18.8687 19.0653C18.6811 18.9542 18.4478 18.8986 18.1689 18.8986C17.8466 18.8986 17.5893 18.9866 17.3969 19.1625C17.2045 19.3338 17.1011 19.6186 17.0866 20.0167C17.0722 20.3963 17.0722 20.7852 17.0866 21.1834C17.1011 21.5815 17.2045 21.8686 17.3969 22.0445C17.5893 22.2158 17.8466 22.3014 18.1689 22.3014C18.4478 22.3014 18.6811 22.2459 18.8687 22.1348C19.0563 22.019 19.1886 21.8107 19.2655 21.5098C19.2799 21.4449 19.304 21.401 19.3377 21.3778C19.3713 21.3547 19.4146 21.3431 19.4675 21.3431H20.1529C20.1962 21.3431 20.2323 21.357 20.2611 21.3848C20.2948 21.4125 20.3092 21.4473 20.3044 21.4889C20.2996 21.7158 20.2467 21.9264 20.1457 22.1209C20.0447 22.3153 19.9028 22.4866 19.72 22.6348C19.5373 22.7783 19.316 22.8917 19.0563 22.975C18.7965 23.0584 18.5031 23.1 18.1761 23.1Z" fill="white"/>
</g>
<defs>
<clipPath id="clip0_2733_1232">
<rect width="30" height="30" fill="white"/>
</clipPath>
</defs>
</svg>
