<svg width="32" height="32" viewBox="0 0 32 32" fill="none" xmlns="http://www.w3.org/2000/svg">
<path d="M24.4853 7.51472C24.6728 7.70226 24.7782 7.95661 24.7782 8.22183C24.7782 8.48704 24.6728 8.7414 24.4853 8.92893L17.4142 16L24.4853 23.0711C24.6728 23.2586 24.7782 23.513 24.7782 23.7782C24.7782 24.0434 24.6728 24.2977 24.4853 24.4853C24.2978 24.6728 24.0434 24.7782 23.7782 24.7782C23.513 24.7782 23.2586 24.6728 23.0711 24.4853L16 17.4142L8.92894 24.4853C8.74141 24.6728 8.48705 24.7782 8.22184 24.7782C7.95662 24.7782 7.70227 24.6728 7.51473 24.4853C7.32719 24.2977 7.22184 24.0434 7.22184 23.7782C7.22184 23.513 7.32719 23.2586 7.51473 23.0711L14.5858 16L7.51473 8.92893C7.32719 8.7414 7.22184 8.48704 7.22184 8.22183C7.22184 7.95661 7.32719 7.70226 7.51473 7.51472C7.70227 7.32718 7.95662 7.22183 8.22184 7.22183C8.48705 7.22183 8.74141 7.32718 8.92894 7.51472L16 14.5858L23.0711 7.51472C23.2586 7.32718 23.513 7.22183 23.7782 7.22183C24.0434 7.22183 24.2978 7.32718 24.4853 7.51472Z" fill="#7C8BA7"/>
</svg>
