<svg width="30" height="30" viewBox="0 0 30 30" fill="none" xmlns="http://www.w3.org/2000/svg">
<path d="M25.3125 11.25H20.625V6.5625C20.625 6.31386 20.5262 6.0754 20.3504 5.89959C20.1746 5.72377 19.9361 5.625 19.6875 5.625H5.625V4.6875C5.625 4.43886 5.52623 4.2004 5.35041 4.02459C5.1746 3.84877 4.93614 3.75 4.6875 3.75C4.43886 3.75 4.2004 3.84877 4.02459 4.02459C3.84877 4.2004 3.75 4.43886 3.75 4.6875V25.3125C3.75 25.5611 3.84877 25.7996 4.02459 25.9754C4.2004 26.1512 4.43886 26.25 4.6875 26.25C4.93614 26.25 5.1746 26.1512 5.35041 25.9754C5.52623 25.7996 5.625 25.5611 5.625 25.3125V24.375H15.9375C16.1861 24.375 16.4246 24.2762 16.6004 24.1004C16.7762 23.9246 16.875 23.6861 16.875 23.4375V18.75H25.3125C25.5611 18.75 25.7996 18.6512 25.9754 18.4754C26.1512 18.2996 26.25 18.0611 26.25 17.8125V12.1875C26.25 11.9389 26.1512 11.7004 25.9754 11.5246C25.7996 11.3488 25.5611 11.25 25.3125 11.25ZM18.75 7.5V11.25H5.625V7.5H18.75ZM15 22.5H5.625V18.75H15V22.5ZM24.375 16.875H5.625V13.125H24.375V16.875Z" fill="#F8511C"/>
</svg>
