<svg width="30" height="30" viewBox="0 0 30 30" fill="none" xmlns="http://www.w3.org/2000/svg">
<path d="M29.5031 10.4225L15.4406 2.9225C15.305 2.85028 15.1537 2.8125 15 2.8125C14.8463 2.8125 14.695 2.85028 14.5594 2.9225L0.496872 10.4225C0.346877 10.5024 0.221435 10.6216 0.133966 10.7674C0.0464962 10.9131 0.000289917 11.0799 0.000289917 11.2498C0.000289917 11.4198 0.0464962 11.5866 0.133966 11.7323C0.221435 11.878 0.346877 11.9973 0.496872 12.0772L3.75 13.8127V19.487C3.74902 19.9474 3.9185 20.392 4.22578 20.735C5.76093 22.4448 9.20039 25.3123 15 25.3123C16.923 25.3282 18.8316 24.9799 20.625 24.2858V28.1248C20.625 28.3735 20.7238 28.6119 20.8996 28.7878C21.0754 28.9636 21.3139 29.0623 21.5625 29.0623C21.8111 29.0623 22.0496 28.9636 22.2254 28.7878C22.4012 28.6119 22.5 28.3735 22.5 28.1248V23.3799C23.7225 22.6742 24.8272 21.7818 25.7742 20.735C26.0815 20.392 26.251 19.9474 26.25 19.487V13.8127L29.5031 12.0772C29.6531 11.9973 29.7786 11.878 29.866 11.7323C29.9535 11.5866 29.9997 11.4198 29.9997 11.2498C29.9997 11.0799 29.9535 10.9131 29.866 10.7674C29.7786 10.6216 29.6531 10.5024 29.5031 10.4225ZM15 23.4373C9.92929 23.4373 6.94687 20.96 5.625 19.487V14.8123L14.5594 19.5772C14.695 19.6494 14.8463 19.6872 15 19.6872C15.1537 19.6872 15.305 19.6494 15.4406 19.5772L20.625 16.8127V22.2432C19.1484 22.9323 17.2875 23.4373 15 23.4373ZM24.375 19.4823C23.813 20.1059 23.1842 20.6659 22.5 21.1522V15.812L24.375 14.8123V19.4823ZM22.0312 13.9381L22.0055 13.9229L15.443 10.4225C15.224 10.3107 14.9699 10.2893 14.7354 10.3631C14.5008 10.4368 14.3046 10.5997 14.1891 10.8167C14.0735 11.0337 14.0478 11.2874 14.1175 11.5232C14.1872 11.759 14.3467 11.9579 14.5617 12.0772L20.0391 14.9998L15 17.687L2.92968 11.2498L15 4.81273L27.0703 11.2498L22.0312 13.9381Z" fill="#F8511C"/>
</svg>
