<svg width="31" height="30" viewBox="0 0 31 30" fill="none" xmlns="http://www.w3.org/2000/svg">
<path d="M15.5 9.37493C14.3875 9.37493 13.2999 9.70483 12.3749 10.3229C11.4499 10.941 10.7289 11.8195 10.3032 12.8473C9.87743 13.8752 9.76603 15.0062 9.98308 16.0973C10.2001 17.1885 10.7358 18.1907 11.5225 18.9774C12.3092 19.7641 13.3115 20.2998 14.4026 20.5168C15.4938 20.7339 16.6248 20.6225 17.6526 20.1968C18.6804 19.771 19.5589 19.05 20.177 18.125C20.7951 17.2 21.125 16.1125 21.125 14.9999C21.1234 13.5086 20.5303 12.0787 19.4758 11.0242C18.4212 9.96961 16.9914 9.37648 15.5 9.37493ZM15.5 18.7499C14.7583 18.7499 14.0333 18.53 13.4166 18.1179C12.7999 17.7059 12.3193 17.1202 12.0354 16.435C11.7516 15.7498 11.6774 14.9958 11.822 14.2683C11.9667 13.5409 12.3239 12.8727 12.8483 12.3483C13.3728 11.8238 14.041 11.4667 14.7684 11.322C15.4958 11.1773 16.2498 11.2516 16.9351 11.5354C17.6203 11.8192 18.2059 12.2999 18.618 12.9165C19.0301 13.5332 19.25 14.2583 19.25 14.9999C19.25 15.9945 18.8549 16.9483 18.1516 17.6516C17.4484 18.3548 16.4946 18.7499 15.5 18.7499ZM25.8125 15.2531C25.8172 15.0843 25.8172 14.9156 25.8125 14.7468L27.5609 12.5624C27.6526 12.4477 27.7161 12.3131 27.7462 12.1694C27.7763 12.0257 27.7723 11.8769 27.7344 11.7351C27.4477 10.6577 27.019 9.62319 26.4594 8.65892C26.3861 8.53273 26.2844 8.42538 26.1623 8.34543C26.0402 8.26547 25.9012 8.21512 25.7562 8.19837L22.9766 7.88899C22.8609 7.76712 22.7437 7.64993 22.625 7.53743L22.2969 4.75071C22.28 4.60565 22.2295 4.46653 22.1493 4.34446C22.0691 4.22238 21.9616 4.12073 21.8351 4.04759C20.8705 3.48901 19.8361 3.06067 18.759 2.77376C18.617 2.73602 18.4682 2.73216 18.3245 2.76249C18.1808 2.79282 18.0462 2.85649 17.9316 2.94837L15.7531 4.68743C15.5844 4.68743 15.4156 4.68743 15.2469 4.68743L13.0625 2.94251C12.9478 2.85083 12.8132 2.78737 12.6695 2.75725C12.5258 2.72712 12.377 2.73117 12.2351 2.76907C11.1579 3.05621 10.1235 3.48495 9.15898 4.04407C9.03279 4.11734 8.92544 4.21906 8.84549 4.34113C8.76554 4.4632 8.71518 4.60224 8.69843 4.7472L8.38906 7.53157C8.26718 7.64798 8.14999 7.76517 8.03749 7.88313L5.25077 8.20306C5.10571 8.21993 4.9666 8.27047 4.84452 8.35063C4.72245 8.43079 4.62079 8.53837 4.54765 8.66478C3.98907 9.62942 3.56074 10.6638 3.27382 11.7409C3.23608 11.8829 3.23222 12.0317 3.26255 12.1754C3.29288 12.3191 3.35655 12.4537 3.44843 12.5683L5.18749 14.7468C5.18749 14.9156 5.18749 15.0843 5.18749 15.2531L3.44257 17.4374C3.35089 17.5521 3.28744 17.6867 3.25731 17.8304C3.22719 17.9741 3.23123 18.1229 3.26913 18.2648C3.55576 19.3422 3.98453 20.3767 4.54413 21.3409C4.61741 21.4671 4.71912 21.5745 4.84119 21.6544C4.96326 21.7344 5.1023 21.7847 5.24726 21.8015L8.02695 22.1109C8.14335 22.2327 8.26054 22.3499 8.37851 22.4624L8.70312 25.2492C8.71999 25.3942 8.77053 25.5333 8.85069 25.6554C8.93085 25.7775 9.03843 25.8791 9.16484 25.9523C10.1295 26.5109 11.1639 26.9392 12.241 27.2261C12.383 27.2638 12.5318 27.2677 12.6755 27.2374C12.8192 27.207 12.9538 27.1434 13.0684 27.0515L15.2469 25.3124C15.4156 25.3171 15.5844 25.3171 15.7531 25.3124L17.9375 27.0609C18.0522 27.1525 18.1868 27.216 18.3305 27.2461C18.4742 27.2763 18.623 27.2722 18.7648 27.2343C19.8423 26.9477 20.8767 26.5189 21.841 25.9593C21.9672 25.886 22.0745 25.7843 22.1545 25.6622C22.2344 25.5402 22.2848 25.4011 22.3016 25.2562L22.6109 22.4765C22.7328 22.3609 22.85 22.2437 22.9625 22.1249L25.7492 21.7968C25.8943 21.7799 26.0334 21.7294 26.1555 21.6492C26.2775 21.5691 26.3792 21.4615 26.4523 21.3351C27.0109 20.3704 27.4392 19.3361 27.7262 18.2589C27.7639 18.117 27.7678 17.9681 27.7374 17.8244C27.7071 17.6807 27.6434 17.5462 27.5516 17.4316L25.8125 15.2531ZM23.9258 14.4913C23.9457 14.8301 23.9457 15.1698 23.9258 15.5085C23.9118 15.7405 23.9845 15.9693 24.1297 16.1507L25.7926 18.2284C25.6018 18.8349 25.3574 19.4231 25.0625 19.9863L22.4141 20.2863C22.1834 20.3119 21.9705 20.4221 21.8164 20.5956C21.5908 20.8493 21.3506 21.0896 21.0969 21.3152C20.9233 21.4692 20.8131 21.6822 20.7875 21.9128L20.4934 24.5589C19.9303 24.854 19.342 25.0983 18.7355 25.289L16.6566 23.6261C16.4903 23.4932 16.2836 23.4209 16.0707 23.421H16.0144C15.6757 23.4409 15.336 23.4409 14.9973 23.421C14.7653 23.4071 14.5365 23.4797 14.3551 23.6249L12.2715 25.289C11.6651 25.0982 11.0768 24.8539 10.5137 24.5589L10.2137 21.914C10.1881 21.6834 10.0778 21.4704 9.90429 21.3163C9.65059 21.0908 9.41033 20.8505 9.18476 20.5968C9.0307 20.4233 8.81774 20.313 8.5871 20.2874L5.94101 19.9921C5.64592 19.429 5.40159 18.8408 5.21093 18.2343L6.87382 16.1554C7.01902 15.974 7.09169 15.7451 7.07773 15.5132C7.05781 15.1744 7.05781 14.8348 7.07773 14.496C7.09169 14.2641 7.01902 14.0352 6.87382 13.8538L5.21093 11.7714C5.40174 11.165 5.64606 10.5768 5.94101 10.0136L8.58593 9.7136C8.81657 9.688 9.02952 9.57777 9.18359 9.40423C9.40916 9.15053 9.64942 8.91027 9.90312 8.6847C10.0773 8.53053 10.188 8.3171 10.2137 8.08587L10.5078 5.44095C11.0709 5.14586 11.6592 4.90153 12.2656 4.71087L14.3445 6.37376C14.5259 6.51896 14.7548 6.59163 14.9867 6.57767C15.3255 6.55774 15.6651 6.55774 16.0039 6.57767C16.2358 6.59163 16.4647 6.51896 16.6461 6.37376L18.7285 4.71087C19.3349 4.90168 19.9232 5.146 20.4863 5.44095L20.7863 8.08587C20.8119 8.31651 20.9222 8.52946 21.0957 8.68353C21.3494 8.9091 21.5897 9.14936 21.8152 9.40306C21.9693 9.5766 22.1822 9.68683 22.4129 9.71243L25.059 10.0066C25.3541 10.5697 25.5984 11.1579 25.7891 11.7644L24.1262 13.8433C23.9796 14.0262 23.9068 14.2574 23.9223 14.4913H23.9258Z" fill="#F8511C"/>
</svg>
