<svg width="31" height="30" viewBox="0 0 31 30" fill="none" xmlns="http://www.w3.org/2000/svg">
<path d="M20.1875 12.1874C20.1875 11.2603 19.9126 10.354 19.3975 9.58315C18.8824 8.81229 18.1504 8.21148 17.2938 7.8567C16.4373 7.50191 15.4948 7.40908 14.5855 7.58995C13.6762 7.77082 12.841 8.21726 12.1854 8.87282C11.5299 9.52838 11.0834 10.3636 10.9026 11.2729C10.7217 12.1822 10.8145 13.1247 11.1693 13.9812C11.5241 14.8377 12.1249 15.5698 12.8958 16.0849C13.6666 16.6 14.5729 16.8749 15.5 16.8749C16.7432 16.8749 17.9355 16.381 18.8146 15.5019C19.6936 14.6229 20.1875 13.4306 20.1875 12.1874ZM12.6875 12.1874C12.6875 11.6311 12.8525 11.0874 13.1615 10.6248C13.4705 10.1623 13.9098 9.80184 14.4237 9.58897C14.9376 9.3761 15.5031 9.3204 16.0487 9.42892C16.5943 9.53744 17.0954 9.80531 17.4887 10.1986C17.8821 10.592 18.1499 11.0931 18.2585 11.6387C18.367 12.1843 18.3113 12.7498 18.0984 13.2637C17.8855 13.7776 17.5251 14.2168 17.0625 14.5259C16.6 14.8349 16.0563 14.9999 15.5 14.9999C14.7541 14.9999 14.0387 14.7036 13.5113 14.1761C12.9838 13.6487 12.6875 12.9333 12.6875 12.1874ZM26.75 23.4374H16.4375V21.5155C18.8306 21.275 21.0397 20.1239 22.608 18.3004C24.1762 16.4768 24.9837 14.1203 24.8632 11.7182C24.7428 9.31602 23.7038 7.05205 21.9611 5.39446C20.2183 3.73688 17.9052 2.8125 15.5 2.8125C13.0948 2.8125 10.7817 3.73688 9.03894 5.39446C7.29619 7.05205 6.25716 9.31602 6.13676 11.7182C6.01635 14.1203 6.82377 16.4768 8.39202 18.3004C9.96028 20.1239 12.1694 21.275 14.5625 21.5155V23.4374H4.25C4.00136 23.4374 3.7629 23.5362 3.58709 23.712C3.41127 23.8878 3.3125 24.1262 3.3125 24.3749C3.3125 24.6235 3.41127 24.862 3.58709 25.0378C3.7629 25.2136 4.00136 25.3124 4.25 25.3124H26.75C26.9986 25.3124 27.2371 25.2136 27.4129 25.0378C27.5887 24.862 27.6875 24.6235 27.6875 24.3749C27.6875 24.1262 27.5887 23.8878 27.4129 23.712C27.2371 23.5362 26.9986 23.4374 26.75 23.4374ZM8 12.1874C8 10.704 8.43987 9.25397 9.26398 8.02061C10.0881 6.78724 11.2594 5.82594 12.6299 5.25829C14.0003 4.69063 15.5083 4.5421 16.9632 4.83149C18.418 5.12088 19.7544 5.83519 20.8033 6.88408C21.8522 7.93298 22.5665 9.26935 22.8559 10.7242C23.1453 12.1791 22.9968 13.6871 22.4291 15.0575C21.8614 16.428 20.9001 17.5993 19.6668 18.4234C18.4334 19.2475 16.9834 19.6874 15.5 19.6874C13.5115 19.6852 11.6052 18.8943 10.1991 17.4883C8.79305 16.0822 8.00217 14.1758 8 12.1874Z" fill="#F8511C"/>
</svg>
