<svg width="30" height="30" viewBox="0 0 30 30" fill="none" xmlns="http://www.w3.org/2000/svg">
<path d="M13.7403 18.5062C14.9967 17.6697 15.9507 16.451 16.461 15.0305C16.9713 13.6099 17.0109 12.0628 16.574 10.6179C16.137 9.1731 15.2467 7.90723 14.0347 7.00753C12.8226 6.10784 11.3532 5.62207 9.84378 5.62207C8.33431 5.62207 6.86492 6.10784 5.65288 7.00753C4.44085 7.90723 3.55053 9.1731 3.11357 10.6179C2.67662 12.0628 2.71623 13.6099 3.22655 15.0305C3.73687 16.451 4.69081 17.6697 5.94729 18.5062C3.67443 19.3439 1.73335 20.894 0.4137 22.9253C0.344343 23.0284 0.296168 23.1442 0.271974 23.2661C0.247781 23.388 0.248052 23.5134 0.272771 23.6352C0.297491 23.7569 0.346166 23.8726 0.415967 23.9754C0.485768 24.0781 0.575302 24.166 0.679367 24.2339C0.783431 24.3018 0.899948 24.3483 1.02215 24.3707C1.14434 24.3932 1.26979 24.3911 1.39118 24.3647C1.51257 24.3382 1.6275 24.2879 1.72927 24.2166C1.83104 24.1453 1.91763 24.0546 1.98401 23.9495C2.83525 22.6403 4.00006 21.5644 5.37265 20.8197C6.74524 20.0749 8.28214 19.6848 9.84378 19.6848C11.4054 19.6848 12.9423 20.0749 14.3149 20.8197C15.6875 21.5644 16.8523 22.6403 17.7035 23.9495C17.841 24.1539 18.0535 24.2959 18.2948 24.3449C18.5362 24.394 18.7872 24.346 18.9935 24.2114C19.1998 24.0769 19.3449 23.8665 19.3974 23.6258C19.4498 23.3852 19.4055 23.1335 19.2739 22.9253C17.9542 20.894 16.0131 19.3439 13.7403 18.5062ZM4.68753 12.6562C4.68753 11.6364 4.98994 10.6395 5.55651 9.79151C6.12309 8.94357 6.92838 8.28268 7.87057 7.89242C8.81275 7.50216 9.8495 7.40004 10.8497 7.599C11.8499 7.79795 12.7687 8.28904 13.4898 9.01015C14.2109 9.73127 14.702 10.65 14.901 11.6502C15.0999 12.6505 14.9978 13.6872 14.6075 14.6294C14.2173 15.5716 13.5564 16.3769 12.7084 16.9434C11.8605 17.51 10.8636 17.8124 9.84378 17.8124C8.47673 17.8109 7.16612 17.2671 6.19947 16.3005C5.23282 15.3338 4.68908 14.0232 4.68753 12.6562ZM29.3133 24.2226C29.1051 24.3584 28.8514 24.4059 28.6081 24.3547C28.3649 24.3035 28.1519 24.1577 28.016 23.9495C27.1658 22.6395 26.0012 21.5632 24.6283 20.8187C23.2554 20.0743 21.718 19.6853 20.1563 19.6874C19.9076 19.6874 19.6692 19.5887 19.4934 19.4128C19.3176 19.237 19.2188 18.9986 19.2188 18.7499C19.2188 18.5013 19.3176 18.2628 19.4934 18.087C19.6692 17.9112 19.9076 17.8124 20.1563 17.8124C20.9156 17.8117 21.6654 17.6433 22.3521 17.3192C23.0388 16.9951 23.6455 16.5233 24.1287 15.9376C24.612 15.3519 24.9599 14.6667 25.1476 13.9309C25.3353 13.1951 25.3582 12.427 25.2147 11.6813C25.0711 10.9357 24.7646 10.231 24.3172 9.6175C23.8697 9.00403 23.2922 8.49696 22.626 8.13254C21.9598 7.76812 21.2214 7.55533 20.4634 7.50938C19.7055 7.46342 18.9468 7.58544 18.2414 7.86672C18.1264 7.91643 18.0026 7.94259 17.8774 7.94365C17.7521 7.94471 17.6278 7.92065 17.512 7.87288C17.3962 7.82512 17.2911 7.75463 17.203 7.66557C17.1149 7.57651 17.0455 7.47069 16.999 7.35436C16.9525 7.23804 16.9297 7.11357 16.9321 6.9883C16.9345 6.86304 16.962 6.73953 17.0129 6.62506C17.0638 6.5106 17.1372 6.4075 17.2286 6.32187C17.3201 6.23623 17.4278 6.1698 17.5453 6.12649C19.1596 5.48272 20.955 5.45955 22.5853 6.06145C24.2156 6.66336 25.5652 7.84768 26.3738 9.38596C27.1824 10.9242 27.3927 12.7075 26.964 14.3916C26.5354 16.0758 25.4983 17.5416 24.0528 18.5062C26.3256 19.3439 28.2667 20.894 29.5864 22.9253C29.7222 23.1336 29.7697 23.3872 29.7185 23.6305C29.6673 23.8738 29.5215 24.0867 29.3133 24.2226Z" fill="#F8511C"/>
</svg>
