<svg width="31" height="30" viewBox="0 0 31 30" fill="none" xmlns="http://www.w3.org/2000/svg">
<path d="M14.0938 20.625C14.0938 20.8736 13.995 21.1121 13.8192 21.2879C13.6433 21.4637 13.4049 21.5625 13.1562 21.5625H9.875C9.62636 21.5625 9.3879 21.4637 9.21209 21.2879C9.03627 21.1121 8.9375 20.8736 8.9375 20.625C8.9375 20.3764 9.03627 20.1379 9.21209 19.9621C9.3879 19.7863 9.62636 19.6875 9.875 19.6875H13.1562C13.4049 19.6875 13.6433 19.7863 13.8192 19.9621C13.995 20.1379 14.0938 20.3764 14.0938 20.625ZM21.125 19.6875H17.8438C17.5951 19.6875 17.3567 19.7863 17.1808 19.9621C17.005 20.1379 16.9062 20.3764 16.9062 20.625C16.9062 20.8736 17.005 21.1121 17.1808 21.2879C17.3567 21.4637 17.5951 21.5625 17.8438 21.5625H21.125C21.3736 21.5625 21.6121 21.4637 21.7879 21.2879C21.9637 21.1121 22.0625 20.8736 22.0625 20.625C22.0625 20.3764 21.9637 20.1379 21.7879 19.9621C21.6121 19.7863 21.3736 19.6875 21.125 19.6875ZM29.5625 25.3125C29.5625 25.5611 29.4637 25.7996 29.2879 25.9754C29.1121 26.1512 28.8736 26.25 28.625 26.25H2.375C2.12636 26.25 1.8879 26.1512 1.71209 25.9754C1.53627 25.7996 1.4375 25.5611 1.4375 25.3125C1.4375 25.0639 1.53627 24.8254 1.71209 24.6496C1.8879 24.4738 2.12636 24.375 2.375 24.375H4.25V10.3125C4.25 10.1384 4.29848 9.96773 4.39001 9.81963C4.48155 9.67152 4.61251 9.55184 4.76824 9.47397C4.92396 9.39611 5.09829 9.36315 5.27169 9.37879C5.44509 9.39442 5.61072 9.45804 5.75 9.5625L11.75 14.0625V10.3125C11.75 10.1384 11.7985 9.96773 11.89 9.81963C11.9815 9.67152 12.1125 9.55184 12.2682 9.47397C12.424 9.39611 12.5983 9.36315 12.7717 9.37879C12.9451 9.39442 13.1107 9.45804 13.25 9.5625L17.7898 12.9668L19.1445 3.48516C19.2101 3.03909 19.4335 2.63133 19.7741 2.33589C20.1147 2.04046 20.5499 1.87693 21.0008 1.875H23.1242C23.5751 1.87693 24.0103 2.04046 24.3509 2.33589C24.6915 2.63133 24.9149 3.03909 24.9805 3.48516L26.7383 15.8051C26.7383 15.8051 26.7477 15.8965 26.7477 15.9375V24.375H28.6227C28.746 24.3747 28.8681 24.3987 28.9821 24.4457C29.0962 24.4927 29.1998 24.5617 29.2871 24.6488C29.3744 24.7358 29.4437 24.8393 29.4909 24.9532C29.5382 25.0671 29.5625 25.1892 29.5625 25.3125ZM19.5008 14.25L20.5004 15H24.732L23.1242 3.75H21.0008L19.5008 14.25ZM6.125 24.375H24.875V16.875H20.1875C19.9847 16.875 19.7873 16.8092 19.625 16.6875L17.9375 15.4219L13.625 12.1875V15.9375C13.625 16.1116 13.5765 16.2823 13.485 16.4304C13.3935 16.5785 13.2625 16.6982 13.1068 16.776C12.951 16.8539 12.7767 16.8868 12.6033 16.8712C12.4299 16.8556 12.2643 16.792 12.125 16.6875L6.125 12.1875V24.375Z" fill="#F8511C"/>
</svg>
