<svg width="30" height="30" viewBox="0 0 30 30" fill="none" xmlns="http://www.w3.org/2000/svg">
<path d="M26.25 5.625V8.90625C26.25 9.15489 26.1512 9.39335 25.9754 9.56916C25.7996 9.74498 25.5611 9.84375 25.3125 9.84375C25.0639 9.84375 24.8254 9.74498 24.6496 9.56916C24.4738 9.39335 24.375 9.15489 24.375 8.90625V5.625H21.0938C20.8451 5.625 20.6067 5.52623 20.4308 5.35041C20.255 5.1746 20.1562 4.93614 20.1562 4.6875C20.1562 4.43886 20.255 4.2004 20.4308 4.02459C20.6067 3.84877 20.8451 3.75 21.0938 3.75H24.375C24.8723 3.75 25.3492 3.94754 25.7008 4.29917C26.0525 4.65081 26.25 5.12772 26.25 5.625ZM25.3125 20.1562C25.0639 20.1562 24.8254 20.255 24.6496 20.4308C24.4738 20.6067 24.375 20.8451 24.375 21.0938V24.375H21.0938C20.8451 24.375 20.6067 24.4738 20.4308 24.6496C20.255 24.8254 20.1562 25.0639 20.1562 25.3125C20.1562 25.5611 20.255 25.7996 20.4308 25.9754C20.6067 26.1512 20.8451 26.25 21.0938 26.25H24.375C24.8723 26.25 25.3492 26.0525 25.7008 25.7008C26.0525 25.3492 26.25 24.8723 26.25 24.375V21.0938C26.25 20.8451 26.1512 20.6067 25.9754 20.4308C25.7996 20.255 25.5611 20.1562 25.3125 20.1562ZM8.90625 24.375H5.625V21.0938C5.625 20.8451 5.52623 20.6067 5.35041 20.4308C5.1746 20.255 4.93614 20.1562 4.6875 20.1562C4.43886 20.1562 4.2004 20.255 4.02459 20.4308C3.84877 20.6067 3.75 20.8451 3.75 21.0938V24.375C3.75 24.8723 3.94754 25.3492 4.29917 25.7008C4.65081 26.0525 5.12772 26.25 5.625 26.25H8.90625C9.15489 26.25 9.39335 26.1512 9.56916 25.9754C9.74498 25.7996 9.84375 25.5611 9.84375 25.3125C9.84375 25.0639 9.74498 24.8254 9.56916 24.6496C9.39335 24.4738 9.15489 24.375 8.90625 24.375ZM4.6875 9.84375C4.93614 9.84375 5.1746 9.74498 5.35041 9.56916C5.52623 9.39335 5.625 9.15489 5.625 8.90625V5.625H8.90625C9.15489 5.625 9.39335 5.52623 9.56916 5.35041C9.74498 5.1746 9.84375 4.93614 9.84375 4.6875C9.84375 4.43886 9.74498 4.2004 9.56916 4.02459C9.39335 3.84877 9.15489 3.75 8.90625 3.75H5.625C5.12772 3.75 4.65081 3.94754 4.29917 4.29917C3.94754 4.65081 3.75 5.12772 3.75 5.625V8.90625C3.75 9.15489 3.84877 9.39335 4.02459 9.56916C4.2004 9.74498 4.43886 9.84375 4.6875 9.84375ZM20.625 20.625C20.4794 20.6253 20.3356 20.5917 20.2053 20.5268C20.0749 20.4619 19.9614 20.3675 19.8738 20.2512C19.3062 19.4944 18.5702 18.8801 17.724 18.457C16.8779 18.0339 15.9449 17.8137 14.9988 17.8137C14.0528 17.8137 13.1198 18.0339 12.2736 18.457C11.4275 18.8801 10.6914 19.4944 10.1238 20.2512C9.97433 20.4501 9.75194 20.5815 9.50558 20.6164C9.25922 20.6514 9.00907 20.587 8.81016 20.4375C8.61124 20.288 8.47987 20.0656 8.44492 19.8193C8.40998 19.5729 8.47433 19.3227 8.62383 19.1238C9.45468 18.0114 10.562 17.1355 11.8359 16.5832C11.1379 15.9459 10.6488 15.1124 10.4329 14.1921C10.217 13.2718 10.2844 12.3078 10.6262 11.4265C10.968 10.5452 11.5682 9.78785 12.3481 9.2538C13.1281 8.71975 14.0512 8.43397 14.9965 8.43397C15.9417 8.43397 16.8649 8.71975 17.6448 9.2538C18.4248 9.78785 19.025 10.5452 19.3668 11.4265C19.7086 12.3078 19.776 13.2718 19.5601 14.1921C19.3442 15.1124 18.8551 15.9459 18.157 16.5832C19.4318 17.1352 20.54 18.011 21.3715 19.1238C21.4761 19.2629 21.54 19.4283 21.5559 19.6016C21.5719 19.7748 21.5393 19.9491 21.4618 20.1049C21.3843 20.2607 21.265 20.3919 21.1172 20.4838C20.9694 20.5756 20.799 20.6245 20.625 20.625ZM15 15.9375C15.5563 15.9375 16.1 15.7726 16.5625 15.4635C17.0251 15.1545 17.3855 14.7152 17.5984 14.2013C17.8113 13.6874 17.867 13.1219 17.7585 12.5763C17.6499 12.0307 17.3821 11.5296 16.9887 11.1363C16.5954 10.7429 16.0943 10.4751 15.5487 10.3665C15.0031 10.258 14.4376 10.3137 13.9237 10.5266C13.4098 10.7395 12.9705 11.0999 12.6615 11.5625C12.3525 12.025 12.1875 12.5687 12.1875 13.125C12.1875 13.8709 12.4838 14.5863 13.0113 15.1137C13.5387 15.6412 14.2541 15.9375 15 15.9375Z" fill="#F8511C"/>
</svg>
