<svg width="30" height="30" viewBox="0 0 30 30" fill="none" xmlns="http://www.w3.org/2000/svg">
<path d="M23.4375 9.37469H21.5625V7.49969C21.5616 6.73834 21.3291 5.99529 20.8957 5.36933C20.4623 4.74336 19.8487 4.26413 19.1364 3.99536C18.424 3.72658 17.6468 3.68099 16.9079 3.86465C16.169 4.04831 15.5036 4.45251 15 5.02352C14.5201 4.47956 13.8927 4.08647 13.1938 3.89191C12.495 3.69734 11.7547 3.70964 11.0627 3.92732C10.3708 4.145 9.75676 4.55871 9.29517 5.11832C8.83357 5.67793 8.5442 6.3594 8.46211 7.08016C7.89256 6.74554 7.24473 6.5673 6.58417 6.56348C5.92361 6.55967 5.27376 6.73041 4.70038 7.05842C4.127 7.38644 3.65045 7.8601 3.31893 8.43146C2.98742 9.00282 2.81272 9.65162 2.8125 10.3122V14.9997C2.8125 18.232 4.09654 21.332 6.38214 23.6176C8.66774 25.9032 11.7677 27.1872 15 27.1872C18.2323 27.1872 21.3323 25.9032 23.6179 23.6176C25.9035 21.332 27.1875 18.232 27.1875 14.9997V13.1247C27.1875 12.1301 26.7924 11.1763 26.0891 10.473C25.3859 9.76978 24.4321 9.37469 23.4375 9.37469ZM17.8125 5.62469C18.3098 5.62469 18.7867 5.82223 19.1383 6.17386C19.49 6.5255 19.6875 7.00241 19.6875 7.49969V9.37469H15.9375V7.49969C15.9375 7.00241 16.135 6.5255 16.4867 6.17386C16.8383 5.82223 17.3152 5.62469 17.8125 5.62469ZM10.3125 7.49969C10.3125 7.00241 10.51 6.5255 10.8617 6.17386C11.2133 5.82223 11.6902 5.62469 12.1875 5.62469C12.6848 5.62469 13.1617 5.82223 13.5133 6.17386C13.865 6.5255 14.0625 7.00241 14.0625 7.49969V12.1872C14.0625 12.6845 13.865 13.1614 13.5133 13.513C13.1617 13.8646 12.6848 14.0622 12.1875 14.0622C11.6902 14.0622 11.2133 13.8646 10.8617 13.513C10.51 13.1614 10.3125 12.6845 10.3125 12.1872V7.49969ZM4.6875 10.3122C4.6875 9.81491 4.88504 9.338 5.23667 8.98636C5.58831 8.63473 6.06522 8.43719 6.5625 8.43719C7.05978 8.43719 7.53669 8.63473 7.88832 8.98636C8.23996 9.338 8.4375 9.81491 8.4375 10.3122V12.1872C8.4375 12.6845 8.23996 13.1614 7.88832 13.513C7.53669 13.8646 7.05978 14.0622 6.5625 14.0622C6.06522 14.0622 5.58831 13.8646 5.23667 13.513C4.88504 13.1614 4.6875 12.6845 4.6875 12.1872V10.3122ZM25.3125 14.9997C25.3125 17.6966 24.2559 20.2863 22.3693 22.2135C20.4827 24.1407 17.9161 25.2522 15.2198 25.3097C12.5234 25.3672 9.91187 24.3661 7.94484 22.521C5.9778 20.6759 4.81185 18.1336 4.69688 15.4391C5.44624 15.8701 6.32171 16.0283 7.17452 15.8869C8.02733 15.7455 8.80487 15.3132 9.375 14.6634C10.0211 15.3996 10.9302 15.8531 11.9069 15.9265C12.8837 15.9999 13.8503 15.6873 14.5992 15.0559C14.9365 15.6149 15.4129 16.0768 15.982 16.3966C15.3788 16.9235 14.8955 17.5735 14.5644 18.3027C14.2333 19.032 14.0621 19.8238 14.0625 20.6247C14.0625 20.8733 14.1613 21.1118 14.3371 21.2876C14.5129 21.4634 14.7514 21.5622 15 21.5622C15.2486 21.5622 15.4871 21.4634 15.6629 21.2876C15.8387 21.1118 15.9375 20.8733 15.9375 20.6247C15.9375 19.6301 16.3326 18.6763 17.0359 17.973C17.7391 17.2698 18.6929 16.8747 19.6875 16.8747C19.9361 16.8747 20.1746 16.7759 20.3504 16.6001C20.5262 16.4243 20.625 16.1858 20.625 15.9372C20.625 15.6885 20.5262 15.4501 20.3504 15.2743C20.1746 15.0985 19.9361 14.9997 19.6875 14.9997H17.8125C17.3152 14.9997 16.8383 14.8021 16.4867 14.4505C16.135 14.0989 15.9375 13.622 15.9375 13.1247V11.2497H23.4375C23.9348 11.2497 24.4117 11.4472 24.7633 11.7989C25.115 12.1505 25.3125 12.6274 25.3125 13.1247V14.9997Z" fill="#F8511C"/>
</svg>
