<svg width="33" height="32" viewBox="0 0 33 32" fill="none" xmlns="http://www.w3.org/2000/svg">
<path d="M26.5 5H6.5C5.96957 5 5.46086 5.21071 5.08579 5.58579C4.71071 5.96086 4.5 6.46957 4.5 7V14.3475C4.5 25.5487 13.9775 29.265 15.875 29.8962C16.2803 30.0341 16.7197 30.0341 17.125 29.8962C19.025 29.265 28.5 25.5487 28.5 14.3475V7C28.5 6.46957 28.2893 5.96086 27.9142 5.58579C27.5391 5.21071 27.0304 5 26.5 5ZM26.5 14.3488C26.5 24.1512 18.2063 27.4263 16.5 27.9963C14.8088 27.4325 6.5 24.16 6.5 14.3488V7H26.5V14.3488ZM10.7925 17.7075C10.6049 17.5199 10.4994 17.2654 10.4994 17C10.4994 16.7346 10.6049 16.4801 10.7925 16.2925C10.9801 16.1049 11.2346 15.9994 11.5 15.9994C11.7654 15.9994 12.0199 16.1049 12.2075 16.2925L14.5 18.585L20.7925 12.2925C20.8854 12.1996 20.9957 12.1259 21.1171 12.0756C21.2385 12.0253 21.3686 11.9994 21.5 11.9994C21.6314 11.9994 21.7615 12.0253 21.8829 12.0756C22.0043 12.1259 22.1146 12.1996 22.2075 12.2925C22.3004 12.3854 22.3741 12.4957 22.4244 12.6171C22.4747 12.7385 22.5006 12.8686 22.5006 13C22.5006 13.1314 22.4747 13.2615 22.4244 13.3829C22.3741 13.5043 22.3004 13.6146 22.2075 13.7075L15.2075 20.7075C15.1146 20.8005 15.0043 20.8742 14.8829 20.9246C14.7615 20.9749 14.6314 21.0008 14.5 21.0008C14.3686 21.0008 14.2385 20.9749 14.1171 20.9246C13.9957 20.8742 13.8854 20.8005 13.7925 20.7075L10.7925 17.7075Z" fill="#F8511C"/>
</svg>
