<svg width="31" height="30" viewBox="0 0 31 30" fill="none" xmlns="http://www.w3.org/2000/svg">
<path d="M28.6251 11.25C28.6251 11.4986 28.5263 11.7371 28.3505 11.9129C28.1747 12.0887 27.9362 12.1875 27.6876 12.1875H25.8126V14.0625C25.8126 14.3111 25.7138 14.5496 25.538 14.7254C25.3622 14.9012 25.1237 15 24.8751 15C24.6264 15 24.388 14.9012 24.2121 14.7254C24.0363 14.5496 23.9376 14.3111 23.9376 14.0625V12.1875H22.0626C21.8139 12.1875 21.5755 12.0887 21.3996 11.9129C21.2238 11.7371 21.1251 11.4986 21.1251 11.25C21.1251 11.0014 21.2238 10.7629 21.3996 10.5871C21.5755 10.4113 21.8139 10.3125 22.0626 10.3125H23.9376V8.4375C23.9376 8.18886 24.0363 7.9504 24.2121 7.77459C24.388 7.59877 24.6264 7.5 24.8751 7.5C25.1237 7.5 25.3622 7.59877 25.538 7.77459C25.7138 7.9504 25.8126 8.18886 25.8126 8.4375V10.3125H27.6876C27.9362 10.3125 28.1747 10.4113 28.3505 10.5871C28.5263 10.7629 28.6251 11.0014 28.6251 11.25ZM17.3751 6.5625H18.3126V7.5C18.3126 7.74864 18.4113 7.9871 18.5871 8.16291C18.763 8.33873 19.0014 8.4375 19.2501 8.4375C19.4987 8.4375 19.7372 8.33873 19.913 8.16291C20.0888 7.9871 20.1876 7.74864 20.1876 7.5V6.5625H21.1251C21.3737 6.5625 21.6122 6.46373 21.788 6.28791C21.9638 6.1121 22.0626 5.87364 22.0626 5.625C22.0626 5.37636 21.9638 5.1379 21.788 4.96209C21.6122 4.78627 21.3737 4.6875 21.1251 4.6875H20.1876V3.75C20.1876 3.50136 20.0888 3.2629 19.913 3.08709C19.7372 2.91127 19.4987 2.8125 19.2501 2.8125C19.0014 2.8125 18.763 2.91127 18.5871 3.08709C18.4113 3.2629 18.3126 3.50136 18.3126 3.75V4.6875H17.3751C17.1264 4.6875 16.888 4.78627 16.7121 4.96209C16.5363 5.1379 16.4376 5.37636 16.4376 5.625C16.4376 5.87364 16.5363 6.1121 16.7121 6.28791C16.888 6.46373 17.1264 6.5625 17.3751 6.5625ZM25.9028 17.9297C26.0119 18.0567 26.085 18.2107 26.1145 18.3756C26.144 18.5404 26.1287 18.7102 26.0704 18.8672C25.4198 20.6413 24.3329 22.223 22.9099 23.4662C21.4869 24.7095 19.7737 25.5743 17.9283 25.9808C16.0829 26.3873 14.1649 26.3224 12.3512 25.7922C10.5375 25.262 8.88662 24.2834 7.55085 22.9469C6.21507 21.6104 5.23747 19.9589 4.70826 18.1449C4.17905 16.3309 4.11529 14.4128 4.52286 12.5677C4.93043 10.7226 5.79619 9.00982 7.04026 7.58752C8.28432 6.16523 9.8666 5.07921 11.6411 4.42969C11.7973 4.37249 11.9658 4.35787 12.1295 4.38733C12.2932 4.4168 12.4462 4.48928 12.5726 4.59735C12.699 4.70542 12.7944 4.84518 12.849 5.00229C12.9036 5.15941 12.9154 5.32822 12.8833 5.49141C12.5547 7.15426 12.6408 8.87243 13.1339 10.4941C13.627 12.1158 14.5119 13.5911 15.7104 14.7897C16.9089 15.9882 18.3842 16.8731 20.0059 17.3662C21.6276 17.8593 23.3458 17.9453 25.0086 17.6168C25.172 17.5849 25.341 17.597 25.4981 17.652C25.6553 17.707 25.795 17.8028 25.9028 17.9297ZM23.6305 19.6734C23.4208 19.684 23.2098 19.6898 23.0001 19.6898C19.7684 19.6864 16.6701 18.401 14.3851 16.1156C12.1002 13.8302 10.8153 10.7317 10.8126 7.5C10.8126 7.29023 10.8126 7.0793 10.829 6.86953C9.5816 7.58732 8.51623 8.58264 7.71541 9.77838C6.91458 10.9741 6.39979 12.3382 6.21092 13.7649C6.02205 15.1916 6.16418 16.6426 6.62629 18.0055C7.0884 19.3685 7.85808 20.6067 8.87571 21.6243C9.89334 22.642 11.1316 23.4117 12.4945 23.8738C13.8575 24.3359 15.3085 24.478 16.7352 24.2891C18.1619 24.1003 19.5259 23.5855 20.7217 22.7847C21.9174 21.9838 22.9127 20.9185 23.6305 19.6711V19.6734Z" fill="#F8511C"/>
</svg>
