<svg width="31" height="30" viewBox="0 0 31 30" fill="none" xmlns="http://www.w3.org/2000/svg">
<path d="M27.0735 8.08565C27.0166 7.9451 26.9265 7.82043 26.8108 7.72235C26.6952 7.62426 26.5575 7.55569 26.4096 7.5225C26.2616 7.48932 26.1078 7.49251 25.9614 7.53181C25.8149 7.57112 25.6802 7.64535 25.5688 7.74815L20.8461 12.1064L18.827 11.6728L18.3934 9.65362L22.7516 4.93096C22.8544 4.81951 22.9286 4.68478 22.9679 4.53834C23.0072 4.3919 23.0104 4.23811 22.9772 4.09016C22.944 3.94221 22.8755 3.80451 22.7774 3.68889C22.6793 3.57326 22.5546 3.48315 22.4141 3.42628C21.1331 2.90811 19.7446 2.71247 18.3703 2.85653C16.9961 3.0006 15.6782 3.47996 14.5326 4.25251C13.387 5.02506 12.4486 6.06714 11.8 7.2872C11.1513 8.50725 10.8122 9.86795 10.8125 11.2497C10.811 12.4165 11.0504 13.5711 11.5156 14.6411L4.45978 20.7419C4.4422 20.756 4.42579 20.7724 4.40939 20.7876C3.70605 21.4909 3.31091 22.4449 3.31091 23.4396C3.31091 23.9321 3.40792 24.4198 3.5964 24.8748C3.78487 25.3298 4.06113 25.7433 4.40939 26.0915C4.75765 26.4398 5.17109 26.716 5.62611 26.9045C6.08114 27.093 6.56883 27.19 7.06134 27.19C8.05602 27.19 9.00995 26.7949 9.71329 26.0915C9.72853 26.0763 9.74494 26.0587 9.759 26.0423L15.8586 18.9841C17.1435 19.5481 18.5487 19.7828 19.9472 19.6668C21.3456 19.5509 22.693 19.088 23.8675 18.3201C25.0419 17.5522 26.0063 16.5035 26.6733 15.2689C27.3403 14.0344 27.6889 12.6529 27.6875 11.2497C27.6893 10.1652 27.4808 9.09071 27.0735 8.08565ZM19.25 17.8122C18.1403 17.8107 17.0491 17.5285 16.0777 16.9919C15.8896 16.8879 15.6714 16.8518 15.4597 16.8896C15.2481 16.9273 15.0559 17.0367 14.9152 17.1993L8.36447 24.786C8.00997 25.1228 7.53794 25.3078 7.04902 25.3016C6.56009 25.2953 6.09295 25.0983 5.74719 24.7525C5.40144 24.4068 5.20443 23.9396 5.19817 23.4507C5.19191 22.9618 5.3769 22.4898 5.71369 22.1353L13.2945 15.5857C13.4574 15.445 13.567 15.2525 13.6048 15.0406C13.6425 14.8287 13.6062 14.6103 13.502 14.422C12.9043 13.3411 12.6239 12.1135 12.6928 10.8803C12.7618 9.64714 13.1773 8.45845 13.8917 7.45091C14.6061 6.44337 15.5903 5.65787 16.7311 5.18473C17.872 4.71159 19.1233 4.57002 20.341 4.77628L16.6848 8.73839C16.583 8.84875 16.5093 8.98192 16.4697 9.1267C16.4302 9.27149 16.426 9.42366 16.4574 9.57042L17.1207 12.656C17.1587 12.8324 17.2467 12.9942 17.3744 13.1218C17.502 13.2495 17.6638 13.3376 17.8402 13.3755L20.9281 14.0388C21.0749 14.0703 21.2271 14.066 21.3719 14.0265C21.5166 13.9869 21.6498 13.9132 21.7602 13.8114L25.7223 10.1552C25.8802 11.0962 25.8313 12.0603 25.5789 12.9805C25.3265 13.9007 24.8766 14.7549 24.2607 15.4836C23.6447 16.2124 22.8774 16.7982 22.012 17.2003C21.1467 17.6024 20.2042 17.8113 19.25 17.8122Z" fill="#F8511C"/>
</svg>
