<svg width="309" height="50" viewBox="0 0 309 50" fill="none" xmlns="http://www.w3.org/2000/svg">
<rect width="309" height="50" fill="#E1E8F2"/>
<path d="M30 11.875C23.7866 11.875 18.75 16.9116 18.75 23.125C18.75 26.2306 20.0083 29.0425 22.0434 31.0782C24.0791 33.115 28.875 36.0625 29.1562 39.1562C29.1984 39.6201 29.5343 40 30 40C30.4657 40 30.8016 39.6201 30.8438 39.1562C31.125 36.0625 35.9209 33.115 37.9566 31.0782C39.9917 29.0425 41.25 26.2306 41.25 23.125C41.25 16.9116 36.2134 11.875 30 11.875Z" fill="#FF4433"/>
<path d="M30 27.0627C32.1746 27.0627 33.9375 25.2999 33.9375 23.1252C33.9375 20.9506 32.1746 19.1877 30 19.1877C27.8254 19.1877 26.0625 20.9506 26.0625 23.1252C26.0625 25.2999 27.8254 27.0627 30 27.0627Z" fill="white"/>
<path d="M60.784 31.74C59.6373 31.74 58.6693 31.4867 57.88 30.98C57.0907 30.468 56.4933 29.7613 56.088 28.86C55.6827 27.9587 55.48 26.9187 55.48 25.74C55.48 24.5613 55.6827 23.5213 56.088 22.62C56.4933 21.7187 57.0907 21.0147 57.88 20.508C58.6693 19.996 59.6373 19.74 60.784 19.74C62.1227 19.74 63.216 20.084 64.064 20.772C64.912 21.4547 65.4933 22.372 65.808 23.524L64.608 23.836C64.3627 22.924 63.9227 22.2013 63.288 21.668C62.6533 21.1347 61.8187 20.868 60.784 20.868C59.8827 20.868 59.1333 21.0733 58.536 21.484C57.9387 21.8947 57.488 22.468 57.184 23.204C56.8853 23.9347 56.7307 24.78 56.72 25.74C56.7147 26.7 56.8613 27.5453 57.16 28.276C57.464 29.0067 57.9173 29.58 58.52 29.996C59.128 30.4067 59.8827 30.612 60.784 30.612C61.8187 30.612 62.6533 30.3453 63.288 29.812C63.9227 29.2733 64.3627 28.5507 64.608 27.644L65.808 27.956C65.4933 29.108 64.912 30.028 64.064 30.716C63.216 31.3987 62.1227 31.74 60.784 31.74ZM67.5731 31.5V19.98H76.3971V31.5H75.2211V21.108H68.7491V31.5H67.5731ZM82.0996 31.748C81.2943 31.7427 80.6036 31.5667 80.0276 31.22C79.4516 30.8733 79.0036 30.356 78.6836 29.668C78.369 28.98 78.1983 28.1213 78.1716 27.092C78.1556 26.6387 78.1663 26.1453 78.2036 25.612C78.241 25.0733 78.2996 24.5613 78.3796 24.076C78.4596 23.5907 78.5556 23.196 78.6676 22.892C78.8063 22.4973 79.0036 22.1293 79.2596 21.788C79.521 21.4413 79.8223 21.1587 80.1636 20.94C80.4943 20.716 80.8676 20.5427 81.2836 20.42C81.705 20.292 82.1423 20.1933 82.5956 20.124C83.0543 20.0547 83.5076 19.9933 83.9556 19.94C84.409 19.8867 84.8276 19.82 85.2116 19.74L85.3396 20.804C85.0463 20.8627 84.6996 20.916 84.2996 20.964C83.8996 21.012 83.481 21.0707 83.0436 21.14C82.6063 21.204 82.1876 21.292 81.7876 21.404C81.3876 21.516 81.0463 21.6627 80.7636 21.844C80.3316 22.1053 79.9983 22.5 79.7636 23.028C79.5343 23.556 79.393 24.1613 79.3396 24.844C79.6703 24.3267 80.1076 23.9373 80.6516 23.676C81.201 23.4147 81.7956 23.284 82.4356 23.284C83.2143 23.284 83.8836 23.4627 84.4436 23.82C85.009 24.1773 85.4436 24.6733 85.7476 25.308C86.0516 25.9427 86.2036 26.6707 86.2036 27.492C86.2036 28.3507 86.0356 29.1 85.6996 29.74C85.369 30.38 84.897 30.876 84.2836 31.228C83.6703 31.5747 82.9423 31.748 82.0996 31.748ZM82.1876 30.62C83.0943 30.62 83.7823 30.3373 84.2516 29.772C84.7263 29.2067 84.9636 28.4547 84.9636 27.516C84.9636 26.556 84.7183 25.7987 84.2276 25.244C83.7423 24.6893 83.057 24.412 82.1716 24.412C81.2863 24.412 80.6063 24.6893 80.1316 25.244C79.657 25.7987 79.4196 26.556 79.4196 27.516C79.4196 28.476 79.657 29.2333 80.1316 29.788C80.6063 30.3427 81.2916 30.62 82.1876 30.62ZM87.4913 33.172L87.5633 32.588C87.7766 32.604 87.9313 32.5613 88.0273 32.46C88.1233 32.3587 88.1819 32.2227 88.2033 32.052C88.2246 31.8813 88.2299 31.6973 88.2193 31.5H87.4913V29.812H88.8593V31.82C88.8593 32.3107 88.7339 32.6787 88.4833 32.924C88.2379 33.1693 87.9073 33.252 87.4913 33.172ZM94.7844 31.492L94.7924 30.42L100 25.716C100.448 25.3107 100.744 24.9267 100.888 24.564C101.038 24.196 101.112 23.812 101.112 23.412C101.112 22.9373 101 22.508 100.776 22.124C100.552 21.74 100.251 21.436 99.8724 21.212C99.4937 20.9827 99.0697 20.868 98.6004 20.868C98.1097 20.868 97.6724 20.9853 97.2884 21.22C96.9044 21.4547 96.6004 21.764 96.3764 22.148C96.1577 22.532 96.051 22.9507 96.0564 23.404H94.8564C94.8564 22.7053 95.0217 22.0787 95.3524 21.524C95.683 20.9693 96.131 20.5347 96.6964 20.22C97.2617 19.9 97.9017 19.74 98.6164 19.74C99.315 19.74 99.9417 19.9053 100.496 20.236C101.056 20.5613 101.496 21.004 101.816 21.564C102.142 22.1187 102.304 22.7373 102.304 23.42C102.304 23.9 102.246 24.324 102.128 24.692C102.016 25.0547 101.838 25.3933 101.592 25.708C101.352 26.0173 101.046 26.3373 100.672 26.668L96.0484 30.844L95.8644 30.364H102.304V31.492H94.7844ZM104.069 26.964V25.956H108.869V26.964H104.069ZM114.532 21.836C114.153 21.836 113.807 21.7427 113.492 21.556C113.177 21.3693 112.927 21.1213 112.74 20.812C112.559 20.4973 112.468 20.1507 112.468 19.772H113.444C113.444 20.0707 113.551 20.3267 113.764 20.54C113.977 20.7533 114.233 20.86 114.532 20.86C114.836 20.86 115.092 20.7533 115.3 20.54C115.513 20.3267 115.62 20.0707 115.62 19.772H116.596C116.596 20.1507 116.503 20.4973 116.316 20.812C116.135 21.1213 115.887 21.3693 115.572 21.556C115.257 21.7427 114.911 21.836 114.532 21.836ZM117.812 22.86V31.5H116.668V24.772L111.932 31.5H110.94V22.86H112.084V29.532L116.828 22.86H117.812ZM123.261 31.5V19.98H127.709C128.354 19.98 128.917 20.1133 129.397 20.38C129.877 20.6467 130.25 21.0067 130.517 21.46C130.783 21.908 130.917 22.404 130.917 22.948C130.917 23.5667 130.751 24.1187 130.421 24.604C130.09 25.084 129.647 25.4173 129.093 25.604L129.077 25.212C129.823 25.4253 130.41 25.7987 130.837 26.332C131.263 26.8653 131.477 27.5107 131.477 28.268C131.477 28.9347 131.335 29.5107 131.053 29.996C130.77 30.476 130.373 30.8467 129.861 31.108C129.349 31.3693 128.754 31.5 128.077 31.5H123.261ZM124.445 30.372H127.789C128.258 30.372 128.679 30.2893 129.053 30.124C129.426 29.9533 129.719 29.7133 129.933 29.404C130.151 29.0947 130.261 28.7213 130.261 28.284C130.261 27.8573 130.162 27.4733 129.965 27.132C129.767 26.7907 129.498 26.5187 129.157 26.316C128.821 26.108 128.437 26.004 128.005 26.004H124.445V30.372ZM124.445 24.892H127.701C128.069 24.892 128.405 24.8093 128.709 24.644C129.013 24.4733 129.253 24.2413 129.429 23.948C129.61 23.6547 129.701 23.316 129.701 22.932C129.701 22.388 129.511 21.9453 129.133 21.604C128.759 21.2627 128.282 21.092 127.701 21.092H124.445V24.892ZM136.729 31.74C135.886 31.74 135.156 31.5533 134.537 31.18C133.924 30.8067 133.446 30.2813 133.105 29.604C132.764 28.9267 132.593 28.132 132.593 27.22C132.593 26.276 132.761 25.46 133.097 24.772C133.433 24.084 133.905 23.5533 134.513 23.18C135.126 22.8067 135.849 22.62 136.681 22.62C137.534 22.62 138.262 22.8173 138.865 23.212C139.468 23.6013 139.924 24.1613 140.233 24.892C140.542 25.6227 140.684 26.4947 140.657 27.508H139.457V27.092C139.436 25.972 139.193 25.1267 138.729 24.556C138.27 23.9853 137.598 23.7 136.713 23.7C135.785 23.7 135.073 24.0013 134.577 24.604C134.086 25.2067 133.841 26.0653 133.841 27.18C133.841 28.268 134.086 29.1133 134.577 29.716C135.073 30.3133 135.774 30.612 136.681 30.612C137.3 30.612 137.838 30.4707 138.297 30.188C138.761 29.9 139.126 29.4867 139.393 28.948L140.489 29.372C140.148 30.124 139.644 30.708 138.977 31.124C138.316 31.5347 137.566 31.74 136.729 31.74ZM133.425 27.508V26.524H140.025V27.508H133.425ZM146.312 31.74C145.518 31.74 144.846 31.54 144.297 31.14C143.747 30.7347 143.331 30.188 143.049 29.5C142.766 28.8067 142.625 28.0307 142.625 27.172C142.625 26.2973 142.766 25.5187 143.049 24.836C143.337 24.148 143.758 23.6067 144.313 23.212C144.867 22.8173 145.55 22.62 146.361 22.62C147.15 22.62 147.827 22.82 148.393 23.22C148.958 23.62 149.39 24.164 149.689 24.852C149.993 25.54 150.145 26.3133 150.145 27.172C150.145 28.036 149.993 28.812 149.689 29.5C149.385 30.188 148.947 30.7347 148.377 31.14C147.806 31.54 147.118 31.74 146.312 31.74ZM142.425 35.34V22.86H143.481V29.364H143.609V35.34H142.425ZM146.193 30.644C146.795 30.644 147.297 30.492 147.697 30.188C148.097 29.884 148.395 29.4707 148.593 28.948C148.795 28.42 148.897 27.828 148.897 27.172C148.897 26.5213 148.798 25.9347 148.601 25.412C148.403 24.8893 148.102 24.476 147.697 24.172C147.297 23.868 146.787 23.716 146.169 23.716C145.566 23.716 145.065 23.8627 144.665 24.156C144.27 24.4493 143.974 24.8573 143.777 25.38C143.579 25.8973 143.481 26.4947 143.481 27.172C143.481 27.8387 143.579 28.436 143.777 28.964C143.974 29.4867 144.273 29.8973 144.673 30.196C145.073 30.4947 145.579 30.644 146.193 30.644ZM150.629 31.5L154.005 27.132L150.701 22.86H152.109L154.693 26.228L157.253 22.86H158.661L155.357 27.132L158.741 31.5H157.325L154.693 28.036L152.045 31.5H150.629ZM160.018 31.5V22.86H161.194V26.612H166.066V22.86H167.242V31.5H166.066V27.74H161.194V31.5H160.018ZM176.343 22.86V31.5H175.199V24.772L170.463 31.5H169.471V22.86H170.615V29.532L175.359 22.86H176.343ZM182.173 21.836C181.794 21.836 181.447 21.7427 181.133 21.556C180.818 21.3693 180.567 21.1213 180.381 20.812C180.199 20.4973 180.109 20.1507 180.109 19.772H181.085C181.085 20.0707 181.191 20.3267 181.405 20.54C181.618 20.7533 181.874 20.86 182.173 20.86C182.477 20.86 182.733 20.7533 182.941 20.54C183.154 20.3267 183.261 20.0707 183.261 19.772H184.237C184.237 20.1507 184.143 20.4973 183.957 20.812C183.775 21.1213 183.527 21.3693 183.213 21.556C182.898 21.7427 182.551 21.836 182.173 21.836ZM185.453 22.86V31.5H184.309V24.772L179.573 31.5H178.581V22.86H179.725V29.532L184.469 22.86H185.453ZM190.893 31.5V22.86H197.765V31.5H196.589V23.988H192.069V31.5H190.893ZM203.667 31.74C202.824 31.74 202.093 31.5533 201.475 31.18C200.861 30.8067 200.384 30.2813 200.043 29.604C199.701 28.9267 199.531 28.132 199.531 27.22C199.531 26.276 199.699 25.46 200.035 24.772C200.371 24.084 200.843 23.5533 201.451 23.18C202.064 22.8067 202.787 22.62 203.619 22.62C204.472 22.62 205.2 22.8173 205.803 23.212C206.405 23.6013 206.861 24.1613 207.171 24.892C207.48 25.6227 207.621 26.4947 207.595 27.508H206.395V27.092C206.373 25.972 206.131 25.1267 205.667 24.556C205.208 23.9853 204.536 23.7 203.651 23.7C202.723 23.7 202.011 24.0013 201.515 24.604C201.024 25.2067 200.779 26.0653 200.779 27.18C200.779 28.268 201.024 29.1133 201.515 29.716C202.011 30.3133 202.712 30.612 203.619 30.612C204.237 30.612 204.776 30.4707 205.235 30.188C205.699 29.9 206.064 29.4867 206.331 28.948L207.427 29.372C207.085 30.124 206.581 30.708 205.915 31.124C205.253 31.5347 204.504 31.74 203.667 31.74ZM200.363 27.508V26.524H206.963V27.508H200.363ZM213.25 31.74C212.455 31.74 211.783 31.54 211.234 31.14C210.685 30.7347 210.269 30.188 209.986 29.5C209.703 28.8067 209.562 28.0307 209.562 27.172C209.562 26.2973 209.703 25.5187 209.986 24.836C210.274 24.148 210.695 23.6067 211.25 23.212C211.805 22.8173 212.487 22.62 213.298 22.62C214.087 22.62 214.765 22.82 215.33 23.22C215.895 23.62 216.327 24.164 216.626 24.852C216.93 25.54 217.082 26.3133 217.082 27.172C217.082 28.036 216.93 28.812 216.626 29.5C216.322 30.188 215.885 30.7347 215.314 31.14C214.743 31.54 214.055 31.74 213.25 31.74ZM209.362 35.34V22.86H210.418V29.364H210.546V35.34H209.362ZM213.13 30.644C213.733 30.644 214.234 30.492 214.634 30.188C215.034 29.884 215.333 29.4707 215.53 28.948C215.733 28.42 215.834 27.828 215.834 27.172C215.834 26.5213 215.735 25.9347 215.538 25.412C215.341 24.8893 215.039 24.476 214.634 24.172C214.234 23.868 213.725 23.716 213.106 23.716C212.503 23.716 212.002 23.8627 211.602 24.156C211.207 24.4493 210.911 24.8573 210.714 25.38C210.517 25.8973 210.418 26.4947 210.418 27.172C210.418 27.8387 210.517 28.436 210.714 28.964C210.911 29.4867 211.21 29.8973 211.61 30.196C212.01 30.4947 212.517 30.644 213.13 30.644ZM222.495 31.74C221.652 31.74 220.921 31.5533 220.303 31.18C219.689 30.8067 219.212 30.2813 218.871 29.604C218.529 28.9267 218.359 28.132 218.359 27.22C218.359 26.276 218.527 25.46 218.863 24.772C219.199 24.084 219.671 23.5533 220.279 23.18C220.892 22.8067 221.615 22.62 222.447 22.62C223.3 22.62 224.028 22.8173 224.631 23.212C225.233 23.6013 225.689 24.1613 225.999 24.892C226.308 25.6227 226.449 26.4947 226.423 27.508H225.223V27.092C225.201 25.972 224.959 25.1267 224.495 24.556C224.036 23.9853 223.364 23.7 222.479 23.7C221.551 23.7 220.839 24.0013 220.343 24.604C219.852 25.2067 219.607 26.0653 219.607 27.18C219.607 28.268 219.852 29.1133 220.343 29.716C220.839 30.3133 221.54 30.612 222.447 30.612C223.065 30.612 223.604 30.4707 224.063 30.188C224.527 29.9 224.892 29.4867 225.159 28.948L226.255 29.372C225.913 30.124 225.409 30.708 224.743 31.124C224.081 31.5347 223.332 31.74 222.495 31.74ZM219.191 27.508V26.524H225.791V27.508H219.191ZM229.274 35.34L230.946 30.804L230.97 32.148L227.186 22.86H228.434L231.538 30.628H231.026L233.89 22.86H235.09L230.45 35.34H229.274ZM235.367 31.5V30.468C235.687 30.5267 235.93 30.5133 236.095 30.428C236.266 30.3373 236.391 30.188 236.471 29.98C236.551 29.7667 236.618 29.5027 236.671 29.188C236.756 28.6653 236.834 28.0893 236.903 27.46C236.972 26.8307 237.034 26.1373 237.087 25.38C237.146 24.6173 237.204 23.7773 237.263 22.86H243.135V31.5H241.967V23.988H238.351C238.314 24.5533 238.271 25.116 238.223 25.676C238.175 26.236 238.124 26.7747 238.071 27.292C238.023 27.804 237.97 28.276 237.911 28.708C237.852 29.14 237.791 29.5133 237.727 29.828C237.631 30.3027 237.503 30.6813 237.343 30.964C237.188 31.2467 236.956 31.4333 236.647 31.524C236.338 31.6147 235.911 31.6067 235.367 31.5ZM248.978 31.74C248.119 31.74 247.386 31.5453 246.778 31.156C246.17 30.7667 245.703 30.228 245.378 29.54C245.053 28.852 244.89 28.0627 244.89 27.172C244.89 26.2653 245.055 25.4707 245.386 24.788C245.717 24.1053 246.186 23.5747 246.794 23.196C247.407 22.812 248.135 22.62 248.978 22.62C249.842 22.62 250.578 22.8147 251.186 23.204C251.799 23.588 252.266 24.124 252.586 24.812C252.911 25.4947 253.074 26.2813 253.074 27.172C253.074 28.0787 252.911 28.876 252.586 29.564C252.261 30.2467 251.791 30.78 251.178 31.164C250.565 31.548 249.831 31.74 248.978 31.74ZM248.978 30.612C249.938 30.612 250.653 30.2947 251.122 29.66C251.591 29.02 251.826 28.1907 251.826 27.172C251.826 26.1267 251.589 25.2947 251.114 24.676C250.645 24.0573 249.933 23.748 248.978 23.748C248.333 23.748 247.799 23.8947 247.378 24.188C246.962 24.476 246.65 24.8787 246.442 25.396C246.239 25.908 246.138 26.5 246.138 27.172C246.138 28.212 246.378 29.0467 246.858 29.676C247.338 30.3 248.045 30.612 248.978 30.612ZM254.831 31.5L254.839 22.86H256.023V27.02L259.879 22.86H261.447L257.399 27.18L261.975 31.5H260.263L256.023 27.34V31.5H254.831ZM262.616 33.172L262.688 32.588C262.902 32.604 263.056 32.5613 263.152 32.46C263.248 32.3587 263.307 32.2227 263.328 32.052C263.35 31.8813 263.355 31.6973 263.344 31.5H262.616V29.812H263.984V31.82C263.984 32.3107 263.859 32.6787 263.608 32.924C263.363 33.1693 263.032 33.252 262.616 33.172ZM272.237 31.5V21.292L270.069 22.596V21.276L272.237 19.98H273.429V31.5H272.237ZM279.56 31.732C278.989 31.732 278.464 31.6307 277.984 31.428C277.504 31.2253 277.09 30.9373 276.744 30.564C276.397 30.1853 276.144 29.7347 275.984 29.212L277.104 28.876C277.296 29.4467 277.61 29.8787 278.048 30.172C278.49 30.4653 278.989 30.6067 279.544 30.596C280.056 30.5853 280.496 30.4707 280.864 30.252C281.237 30.0333 281.522 29.7293 281.72 29.34C281.917 28.9507 282.016 28.5 282.016 27.988C282.016 27.204 281.786 26.5747 281.328 26.1C280.874 25.62 280.274 25.38 279.528 25.38C279.32 25.38 279.101 25.4093 278.872 25.468C278.642 25.5213 278.429 25.5987 278.232 25.7L277.64 24.764L282.12 20.628L282.312 21.108H276.44V19.98H283.096V21.124L279.192 24.852L279.176 24.388C279.976 24.2867 280.68 24.3773 281.288 24.66C281.896 24.9427 282.37 25.3747 282.712 25.956C283.058 26.532 283.232 27.2093 283.232 27.988C283.232 28.724 283.072 29.3747 282.752 29.94C282.437 30.5 282.002 30.94 281.448 31.26C280.893 31.5747 280.264 31.732 279.56 31.732ZM287.78 31.74C287.129 31.74 286.582 31.6227 286.14 31.388C285.702 31.1533 285.374 30.8413 285.156 30.452C284.937 30.0627 284.828 29.6387 284.828 29.18C284.828 28.7107 284.921 28.3107 285.108 27.98C285.3 27.644 285.558 27.3693 285.884 27.156C286.214 26.9427 286.596 26.78 287.028 26.668C287.465 26.5613 287.948 26.468 288.476 26.388C289.009 26.3027 289.529 26.2307 290.036 26.172C290.548 26.108 290.996 26.0467 291.38 25.988L290.964 26.244C290.98 25.3907 290.814 24.7587 290.468 24.348C290.121 23.9373 289.518 23.732 288.66 23.732C288.068 23.732 287.566 23.8653 287.156 24.132C286.75 24.3987 286.465 24.82 286.299 25.396L285.156 25.06C285.353 24.2867 285.75 23.6867 286.348 23.26C286.945 22.8333 287.721 22.62 288.676 22.62C289.465 22.62 290.134 22.7693 290.684 23.068C291.238 23.3613 291.63 23.788 291.86 24.348C291.966 24.5987 292.036 24.8787 292.068 25.188C292.1 25.4973 292.116 25.812 292.116 26.132V31.5H291.068V29.332L291.372 29.46C291.078 30.2013 290.622 30.7667 290.004 31.156C289.385 31.5453 288.644 31.74 287.78 31.74ZM287.916 30.724C288.465 30.724 288.945 30.6253 289.356 30.428C289.766 30.2307 290.097 29.9613 290.348 29.62C290.598 29.2733 290.761 28.884 290.836 28.452C290.9 28.1747 290.934 27.8707 290.94 27.54C290.945 27.204 290.948 26.9533 290.948 26.788L291.396 27.02C290.996 27.0733 290.561 27.1267 290.092 27.18C289.628 27.2333 289.169 27.2947 288.716 27.364C288.268 27.4333 287.862 27.516 287.5 27.612C287.254 27.6813 287.017 27.78 286.788 27.908C286.558 28.0307 286.369 28.196 286.22 28.404C286.076 28.612 286.004 28.8707 286.004 29.18C286.004 29.4307 286.065 29.6733 286.188 29.908C286.316 30.1427 286.518 30.3373 286.796 30.492C287.078 30.6467 287.452 30.724 287.916 30.724Z" fill="#243452"/>
</svg>
