<svg width="24" height="25" viewBox="0 0 24 25" fill="none" xmlns="http://www.w3.org/2000/svg">
<path d="M14.25 8C14.8434 8 15.4234 7.82405 15.9168 7.49441C16.4101 7.16477 16.7946 6.69623 17.0217 6.14805C17.2488 5.59987 17.3082 4.99667 17.1924 4.41473C17.0767 3.83279 16.7909 3.29824 16.3714 2.87868C15.9518 2.45912 15.4173 2.1734 14.8353 2.05765C14.2534 1.94189 13.6502 2.0013 13.102 2.22836C12.5538 2.45543 12.0853 2.83994 11.7556 3.33329C11.426 3.82664 11.25 4.40666 11.25 5C11.25 5.79565 11.5661 6.55871 12.1287 7.12132C12.6913 7.68393 13.4544 8 14.25 8ZM14.25 3.5C14.5467 3.5 14.8367 3.58797 15.0834 3.7528C15.3301 3.91762 15.5223 4.15189 15.6359 4.42598C15.7494 4.70007 15.7791 5.00167 15.7212 5.29264C15.6634 5.58361 15.5205 5.85088 15.3107 6.06066C15.1009 6.27044 14.8337 6.4133 14.5427 6.47118C14.2517 6.52906 13.9501 6.49935 13.676 6.38582C13.4019 6.27229 13.1677 6.08003 13.0028 5.83336C12.838 5.58668 12.75 5.29667 12.75 5C12.75 4.60218 12.9081 4.22065 13.1894 3.93934C13.4707 3.65804 13.8522 3.5 14.25 3.5ZM20.25 14C20.25 14.1989 20.171 14.3897 20.0304 14.5303C19.8897 14.671 19.699 14.75 19.5 14.75C16.1897 14.75 14.536 13.0803 13.2076 11.7388C12.9507 11.4791 12.705 11.2325 12.4576 11.0038L11.1985 13.8988L14.686 16.3897C14.7831 16.4591 14.8623 16.5507 14.9169 16.6568C14.9716 16.763 15.0001 16.8806 15 17V22.25C15 22.4489 14.921 22.6397 14.7804 22.7803C14.6397 22.921 14.449 23 14.25 23C14.0511 23 13.8604 22.921 13.7197 22.7803C13.5791 22.6397 13.5 22.4489 13.5 22.25V17.3863L10.5872 15.305L7.43817 22.5491C7.37989 22.6831 7.28371 22.7972 7.16146 22.8773C7.03921 22.9574 6.89621 23.0001 6.75005 23C6.64706 23.0002 6.54517 22.9788 6.45099 22.9372C6.26866 22.8579 6.12527 22.7095 6.05232 22.5246C5.97936 22.3397 5.98282 22.1333 6.06192 21.9509L11.1319 10.2913C10.2591 10.1366 9.17067 10.4038 7.8788 11.0956C6.84848 11.6639 5.88687 12.3487 5.01286 13.1366C4.86698 13.2672 4.67576 13.3357 4.48009 13.3272C4.28442 13.3188 4.09981 13.2341 3.96574 13.0913C3.83166 12.9486 3.75875 12.759 3.7626 12.5632C3.76644 12.3674 3.84673 12.1808 3.9863 12.0434C4.22067 11.8231 9.76974 6.67813 13.2413 9.69219C13.6004 10.0034 13.9425 10.3484 14.2725 10.6831C15.5804 12.0031 16.8151 13.25 19.5 13.25C19.699 13.25 19.8897 13.329 20.0304 13.4697C20.171 13.6103 20.25 13.8011 20.25 14Z" fill="#7C8BA7"/>
</svg>
