<svg width="20" height="21" viewBox="0 0 20 21" fill="none" xmlns="http://www.w3.org/2000/svg">
<path d="M1.66675 10.5H10.0001M7.50008 3.83335V17.1667M2.50008 8.00002L5.00008 10.5L2.50008 13M10.0001 5.50002L7.50008 8.00002L5.00008 5.50002M5.00008 15.5L7.50008 13L8.75008 14.25M16.6667 12.6126V3.83335C16.6667 2.91288 15.9206 2.16669 15.0001 2.16669C14.0796 2.16669 13.3334 2.91288 13.3334 3.83335V12.6126C12.3371 13.189 11.6667 14.2662 11.6667 15.5C11.6667 17.341 13.1591 18.8334 15.0001 18.8334C16.841 18.8334 18.3334 17.341 18.3334 15.5C18.3334 14.2662 17.6631 13.189 16.6667 12.6126Z" stroke="white" stroke-linecap="round" stroke-linejoin="round"/>
</svg>
