<svg width="20" height="21" viewBox="0 0 20 21" fill="none" xmlns="http://www.w3.org/2000/svg">
<path d="M12.0833 4.25002C12.0833 3.09943 11.1506 2.16669 10 2.16669C8.84941 2.16669 7.91667 3.09943 7.91667 4.25002V11.9648C6.91168 12.6376 6.25 13.7832 6.25 15.0834C6.25 17.1544 7.92893 18.8334 10 18.8334C12.0711 18.8334 13.75 17.1544 13.75 15.0834C13.75 13.7832 13.0883 12.6376 12.0833 11.9648V4.25002Z" stroke="white" stroke-linecap="round" stroke-linejoin="round"/>
<path d="M10 15.9167C10.4602 15.9167 10.8333 15.5436 10.8333 15.0834C10.8333 14.6231 10.4602 14.25 10 14.25C9.53976 14.25 9.16667 14.6231 9.16667 15.0834C9.16667 15.5436 9.53976 15.9167 10 15.9167Z" stroke="white" stroke-linecap="round" stroke-linejoin="round"/>
</svg>
