<svg width="109" height="19" viewBox="0 0 109 19" fill="none" xmlns="http://www.w3.org/2000/svg">
<path d="M1.89539 2.02881V17.0383H4.13177V12.0423H7.50828C10.819 12.0423 12.4854 9.55508 12.4854 7.04635C12.4854 4.53753 10.819 2.02881 7.50828 2.02881H1.89539ZM4.13177 9.89816V4.21592H7.50828C9.37194 4.21592 10.2927 5.63109 10.2927 7.06772C10.2927 8.48299 9.37194 9.89816 7.50828 9.89816H4.13177Z" fill="white" fill-opacity="0.6"/>
<path d="M17.8747 10.4556L23.4657 17.0383H26.3379L21.4924 11.3991C24.1234 10.9488 25.4608 8.93322 25.4608 6.81041C25.4608 4.43039 23.7946 2.02881 20.4619 2.02881H14.871V17.0383H17.0635V4.21592H20.4619C22.3255 4.21592 23.2463 5.52395 23.2463 6.81041C23.2463 8.11844 22.3255 9.42638 20.4619 9.42638H17.8747V10.4556Z" fill="white" fill-opacity="0.6"/>
<path d="M40.6834 9.53407C40.6834 11.0993 40.0476 12.4716 39.039 13.458C38.0085 14.4872 36.5614 15.109 35.0267 15.109C33.4918 15.109 32.0887 14.4872 31.0582 13.458C30.0276 12.4716 29.3918 11.0779 29.3918 9.53407C29.3918 7.9902 30.0276 6.5964 31.0582 5.61008C32.0887 4.58083 33.4918 3.95906 35.0267 3.95906C36.5614 3.95906 38.0085 4.58083 39.039 5.61008C40.0476 6.5964 40.6834 7.96873 40.6834 9.53407ZM27.1335 9.53407C27.1335 11.6782 28.0325 13.608 29.4356 15.0232C30.8609 16.4599 32.856 17.3176 35.0267 17.3176C37.2192 17.3176 39.1925 16.4599 40.6395 15.0232C42.0428 13.608 42.9417 11.6782 42.9417 9.53407C42.9417 7.3898 42.0428 5.46001 40.6395 4.04483C39.1925 2.62966 37.2192 1.75049 35.0267 1.75049C32.856 1.75049 30.8609 2.62966 29.4356 4.04483C28.0325 5.46001 27.1335 7.3898 27.1335 9.53407Z" fill="white" fill-opacity="0.6"/>
<path d="M47.3825 10.6272H53.5217V8.6116H47.3825V4.13015H54.311V2.02881H45.1681V17.0383H47.3825V10.6272Z" fill="white" fill-opacity="0.6"/>
<path d="M55.6013 4.40616V14.9585H52.751V17.0383H60.6661V14.9585H57.8158V4.1087H60.6661V2.05029H55.6038V4.40616H55.6013Z" fill="white" fill-opacity="0.6"/>
<path d="M69.0957 4.08731V17.0383H66.8812V4.08731H62.233V2.02881H73.7223V4.08731H69.0957Z" fill="white" fill-opacity="0.6"/>
<path d="M75.4077 2.08105V16.9856H75.8908V2.08105H75.4077ZM76.2866 9.72501L84.6809 16.9856H85.4494L76.7478 9.51207L85.2299 2.08105H84.4608L76.2866 9.34168V9.72501Z" fill="white" fill-opacity="0.6"/>
<path d="M94.0942 2.08105H87.1504V2.48566H90.3804V16.5598H87.1504V16.9856H94.0942V16.5598H90.8416V2.48566H94.0942V2.08105Z" fill="white" fill-opacity="0.6"/>
<path d="M101.831 16.9856V2.54949H107.105V2.08105H96.0956V2.54949H101.369V16.9856H101.831Z" fill="white" fill-opacity="0.6"/>
</svg>
